  0
SECTION
  2
BLOCKS
  0
ENDSEC
  0
SECTION
  2
ENTITIES
  0
LINE
  8
0
 10
1
 20
-0.199997
 11
1
 21
19.435
  0
LINE
  8
0
 10
1
 20
19.435
 11
-1
 21
19.435
  0
LINE
  8
0
 10
-1
 20
19.435
 11
-1
 21
-0.199997
  0
LINE
  8
0
 10
-1
 20
-0.199997
 11
1
 21
-0.199997
  0
LINE
  8
0
 10
-0.624725
 20
17.8268
 11
-0.647018
 21
17.8154
  0
LINE
  8
0
 10
-0.647018
 20
17.8154
 11
-0.671738
 21
17.8115
  0
LINE
  8
0
 10
-0.671738
 20
17.8115
 11
-0.696457
 21
17.8154
  0
LINE
  8
0
 10
-0.696457
 20
17.8154
 11
-0.71875
 21
17.8268
  0
LINE
  8
0
 10
-0.71875
 20
17.8268
 11
-0.73645
 21
17.8445
  0
LINE
  8
0
 10
-0.73645
 20
17.8445
 11
-0.747818
 21
17.8668
  0
LINE
  8
0
 10
-0.747818
 20
17.8668
 11
-0.751724
 21
17.8915
  0
LINE
  8
0
 10
-0.751724
 20
17.8915
 11
-0.751724
 21
19.035
  0
LINE
  8
0
 10
-0.751724
 20
19.035
 11
0.583466
 21
19.035
  0
LINE
  8
0
 10
0.583466
 20
19.035
 11
-0.624725
 21
17.8268
  0
LINE
  8
0
 10
-0.799988
 20
19.1725
 11
-0.799988
 21
19.2975
  0
LINE
  8
0
 10
-0.799988
 20
19.2975
 11
-0.599991
 21
19.2975
  0
LINE
  8
0
 10
-0.599991
 20
19.2975
 11
-0.599991
 21
19.1725
  0
LINE
  8
0
 10
-0.599991
 20
19.1725
 11
-0.799988
 21
19.1725
  0
LINE
  8
0
 10
-0.449997
 20
19.1725
 11
-0.449997
 21
19.2975
  0
LINE
  8
0
 10
-0.449997
 20
19.2975
 11
-0.249985
 21
19.2975
  0
LINE
  8
0
 10
-0.249985
 20
19.2975
 11
-0.249985
 21
19.1725
  0
LINE
  8
0
 10
-0.249985
 20
19.1725
 11
-0.449997
 21
19.1725
  0
LINE
  8
0
 10
-0.0999908
 20
19.1725
 11
-0.0999908
 21
19.2975
  0
LINE
  8
0
 10
-0.0999908
 20
19.2975
 11
0.0999908
 21
19.2975
  0
LINE
  8
0
 10
0.0999908
 20
19.2975
 11
0.0999908
 21
19.1725
  0
LINE
  8
0
 10
0.0999908
 20
19.1725
 11
-0.0999908
 21
19.1725
  0
LINE
  8
0
 10
0.249985
 20
19.1725
 11
0.249985
 21
19.2975
  0
LINE
  8
0
 10
0.249985
 20
19.2975
 11
0.449997
 21
19.2975
  0
LINE
  8
0
 10
0.449997
 20
19.2975
 11
0.449997
 21
19.1725
  0
LINE
  8
0
 10
0.449997
 20
19.1725
 11
0.249985
 21
19.1725
  0
LINE
  8
0
 10
0.599991
 20
19.1725
 11
0.599991
 21
19.2975
  0
LINE
  8
0
 10
0.599991
 20
19.2975
 11
0.799988
 21
19.2975
  0
LINE
  8
0
 10
0.799988
 20
19.2975
 11
0.799988
 21
19.1725
  0
LINE
  8
0
 10
0.799988
 20
19.1725
 11
0.599991
 21
19.1725
  0
LINE
  8
0
 10
0.647018
 20
15.892
 11
0.624725
 21
15.9033
  0
LINE
  8
0
 10
0.624725
 20
15.9033
 11
-0.73645
 21
17.2645
  0
LINE
  8
0
 10
-0.73645
 20
17.2645
 11
-0.747818
 21
17.2868
  0
LINE
  8
0
 10
-0.747818
 20
17.2868
 11
-0.751724
 21
17.3115
  0
LINE
  8
0
 10
-0.751724
 20
17.3115
 11
-0.747818
 21
17.3362
  0
LINE
  8
0
 10
-0.747818
 20
17.3362
 11
-0.73645
 21
17.3585
  0
LINE
  8
0
 10
-0.73645
 20
17.3585
 11
0.624725
 21
18.7197
  0
LINE
  8
0
 10
0.624725
 20
18.7197
 11
0.647018
 21
18.7311
  0
LINE
  8
0
 10
0.647018
 20
18.7311
 11
0.671738
 21
18.735
  0
LINE
  8
0
 10
0.671738
 20
18.735
 11
0.696457
 21
18.7311
  0
LINE
  8
0
 10
0.696457
 20
18.7311
 11
0.71875
 21
18.7197
  0
LINE
  8
0
 10
0.71875
 20
18.7197
 11
0.73645
 21
18.702
  0
LINE
  8
0
 10
0.73645
 20
18.702
 11
0.747818
 21
18.6797
  0
LINE
  8
0
 10
0.747818
 20
18.6797
 11
0.751724
 21
18.655
  0
LINE
  8
0
 10
0.751724
 20
18.655
 11
0.751724
 21
15.968
  0
LINE
  8
0
 10
0.751724
 20
15.968
 11
0.747818
 21
15.9433
  0
LINE
  8
0
 10
0.747818
 20
15.9433
 11
0.73645
 21
15.921
  0
LINE
  8
0
 10
0.73645
 20
15.921
 11
0.71875
 21
15.9033
  0
LINE
  8
0
 10
0.71875
 20
15.9033
 11
0.696457
 21
15.892
  0
LINE
  8
0
 10
0.696457
 20
15.892
 11
0.671738
 21
15.888
  0
LINE
  8
0
 10
0.671738
 20
15.888
 11
0.647018
 21
15.892
  0
LINE
  8
0
 10
-0.751724
 20
15.588
 11
-0.751724
 21
16.7315
  0
LINE
  8
0
 10
-0.751724
 20
16.7315
 11
-0.747818
 21
16.7562
  0
LINE
  8
0
 10
-0.747818
 20
16.7562
 11
-0.73645
 21
16.7785
  0
LINE
  8
0
 10
-0.73645
 20
16.7785
 11
-0.71875
 21
16.7962
  0
LINE
  8
0
 10
-0.71875
 20
16.7962
 11
-0.696457
 21
16.8076
  0
LINE
  8
0
 10
-0.696457
 20
16.8076
 11
-0.671738
 21
16.8115
  0
LINE
  8
0
 10
-0.671738
 20
16.8115
 11
-0.647018
 21
16.8076
  0
LINE
  8
0
 10
-0.647018
 20
16.8076
 11
-0.624725
 21
16.7962
  0
LINE
  8
0
 10
-0.624725
 20
16.7962
 11
0.58345
 21
15.588
  0
LINE
  8
0
 10
0.58345
 20
15.588
 11
-0.751724
 21
15.588
  0
LINE
  8
0
 10
-0.799988
 20
15.3255
 11
-0.799988
 21
15.4505
  0
LINE
  8
0
 10
-0.799988
 20
15.4505
 11
-0.599991
 21
15.4505
  0
LINE
  8
0
 10
-0.599991
 20
15.4505
 11
-0.599991
 21
15.3255
  0
LINE
  8
0
 10
-0.599991
 20
15.3255
 11
-0.799988
 21
15.3255
  0
LINE
  8
0
 10
-0.449997
 20
15.3255
 11
-0.449997
 21
15.4505
  0
LINE
  8
0
 10
-0.449997
 20
15.4505
 11
-0.249985
 21
15.4505
  0
LINE
  8
0
 10
-0.249985
 20
15.4505
 11
-0.249985
 21
15.3255
  0
LINE
  8
0
 10
-0.249985
 20
15.3255
 11
-0.449997
 21
15.3255
  0
LINE
  8
0
 10
-0.0999908
 20
15.3255
 11
-0.0999908
 21
15.4505
  0
LINE
  8
0
 10
-0.0999908
 20
15.4505
 11
0.0999908
 21
15.4505
  0
LINE
  8
0
 10
0.0999908
 20
15.4505
 11
0.0999908
 21
15.3255
  0
LINE
  8
0
 10
0.0999908
 20
15.3255
 11
-0.0999908
 21
15.3255
  0
LINE
  8
0
 10
0.249985
 20
15.3255
 11
0.249985
 21
15.4505
  0
LINE
  8
0
 10
0.249985
 20
15.4505
 11
0.449997
 21
15.4505
  0
LINE
  8
0
 10
0.449997
 20
15.4505
 11
0.449997
 21
15.3255
  0
LINE
  8
0
 10
0.449997
 20
15.3255
 11
0.249985
 21
15.3255
  0
LINE
  8
0
 10
0.599991
 20
15.3255
 11
0.599991
 21
15.4505
  0
LINE
  8
0
 10
0.599991
 20
15.4505
 11
0.799988
 21
15.4505
  0
LINE
  8
0
 10
0.799988
 20
15.4505
 11
0.799988
 21
15.3255
  0
LINE
  8
0
 10
0.799988
 20
15.3255
 11
0.599991
 21
15.3255
  0
LINE
  8
0
 10
-0.696457
 20
13.9684
 11
-0.71875
 21
13.9798
  0
LINE
  8
0
 10
-0.71875
 20
13.9798
 11
-0.73645
 21
13.9975
  0
LINE
  8
0
 10
-0.73645
 20
13.9975
 11
-0.747818
 21
14.0198
  0
LINE
  8
0
 10
-0.747818
 20
14.0198
 11
-0.751724
 21
14.0445
  0
LINE
  8
0
 10
-0.751724
 20
14.0445
 11
-0.751724
 21
15.188
  0
LINE
  8
0
 10
-0.751724
 20
15.188
 11
0.583481
 21
15.188
  0
LINE
  8
0
 10
0.583481
 20
15.188
 11
-0.624725
 21
13.9798
  0
LINE
  8
0
 10
-0.624725
 20
13.9798
 11
-0.647018
 21
13.9684
  0
LINE
  8
0
 10
-0.647018
 20
13.9684
 11
-0.671738
 21
13.9645
  0
LINE
  8
0
 10
-0.671738
 20
13.9645
 11
-0.696457
 21
13.9684
  0
LINE
  8
0
 10
0.647018
 20
12.0449
 11
0.624725
 21
12.0563
  0
LINE
  8
0
 10
0.624725
 20
12.0563
 11
-0.73645
 21
13.4175
  0
LINE
  8
0
 10
-0.73645
 20
13.4175
 11
-0.747818
 21
13.4398
  0
LINE
  8
0
 10
-0.747818
 20
13.4398
 11
-0.751724
 21
13.4645
  0
LINE
  8
0
 10
-0.751724
 20
13.4645
 11
-0.747818
 21
13.4892
  0
LINE
  8
0
 10
-0.747818
 20
13.4892
 11
-0.73645
 21
13.5115
  0
LINE
  8
0
 10
-0.73645
 20
13.5115
 11
0.624725
 21
14.8727
  0
LINE
  8
0
 10
0.624725
 20
14.8727
 11
0.647018
 21
14.8841
  0
LINE
  8
0
 10
0.647018
 20
14.8841
 11
0.671738
 21
14.888
  0
LINE
  8
0
 10
0.671738
 20
14.888
 11
0.696457
 21
14.8841
  0
LINE
  8
0
 10
0.696457
 20
14.8841
 11
0.71875
 21
14.8727
  0
LINE
  8
0
 10
0.71875
 20
14.8727
 11
0.73645
 21
14.855
  0
LINE
  8
0
 10
0.73645
 20
14.855
 11
0.747818
 21
14.8327
  0
LINE
  8
0
 10
0.747818
 20
14.8327
 11
0.751724
 21
14.808
  0
LINE
  8
0
 10
0.751724
 20
14.808
 11
0.751724
 21
12.121
  0
LINE
  8
0
 10
0.751724
 20
12.121
 11
0.747818
 21
12.0963
  0
LINE
  8
0
 10
0.747818
 20
12.0963
 11
0.73645
 21
12.074
  0
LINE
  8
0
 10
0.73645
 20
12.074
 11
0.71875
 21
12.0563
  0
LINE
  8
0
 10
0.71875
 20
12.0563
 11
0.696457
 21
12.0449
  0
LINE
  8
0
 10
0.696457
 20
12.0449
 11
0.671738
 21
12.041
  0
LINE
  8
0
 10
0.671738
 20
12.041
 11
0.647018
 21
12.0449
  0
LINE
  8
0
 10
-0.751724
 20
11.741
 11
-0.751724
 21
12.8845
  0
LINE
  8
0
 10
-0.751724
 20
12.8845
 11
-0.747818
 21
12.9092
  0
LINE
  8
0
 10
-0.747818
 20
12.9092
 11
-0.73645
 21
12.9315
  0
LINE
  8
0
 10
-0.73645
 20
12.9315
 11
-0.71875
 21
12.9492
  0
LINE
  8
0
 10
-0.71875
 20
12.9492
 11
-0.696457
 21
12.9606
  0
LINE
  8
0
 10
-0.696457
 20
12.9606
 11
-0.671738
 21
12.9645
  0
LINE
  8
0
 10
-0.671738
 20
12.9645
 11
-0.647018
 21
12.9606
  0
LINE
  8
0
 10
-0.647018
 20
12.9606
 11
-0.624725
 21
12.9492
  0
LINE
  8
0
 10
-0.624725
 20
12.9492
 11
0.58345
 21
11.741
  0
LINE
  8
0
 10
0.58345
 20
11.741
 11
-0.751724
 21
11.741
  0
LINE
  8
0
 10
-0.799988
 20
11.4785
 11
-0.799988
 21
11.6035
  0
LINE
  8
0
 10
-0.799988
 20
11.6035
 11
-0.599991
 21
11.6035
  0
LINE
  8
0
 10
-0.599991
 20
11.6035
 11
-0.599991
 21
11.4785
  0
LINE
  8
0
 10
-0.599991
 20
11.4785
 11
-0.799988
 21
11.4785
  0
LINE
  8
0
 10
0.599991
 20
11.4785
 11
0.599991
 21
11.6035
  0
LINE
  8
0
 10
0.599991
 20
11.6035
 11
0.799988
 21
11.6035
  0
LINE
  8
0
 10
0.799988
 20
11.6035
 11
0.799988
 21
11.4785
  0
LINE
  8
0
 10
0.799988
 20
11.4785
 11
0.599991
 21
11.4785
  0
LINE
  8
0
 10
0.249985
 20
11.4785
 11
0.249985
 21
11.6035
  0
LINE
  8
0
 10
0.249985
 20
11.6035
 11
0.449997
 21
11.6035
  0
LINE
  8
0
 10
0.449997
 20
11.6035
 11
0.449997
 21
11.4785
  0
LINE
  8
0
 10
0.449997
 20
11.4785
 11
0.249985
 21
11.4785
  0
LINE
  8
0
 10
-0.0999908
 20
11.4785
 11
-0.0999908
 21
11.6035
  0
LINE
  8
0
 10
-0.0999908
 20
11.6035
 11
0.0999908
 21
11.6035
  0
LINE
  8
0
 10
0.0999908
 20
11.6035
 11
0.0999908
 21
11.4785
  0
LINE
  8
0
 10
0.0999908
 20
11.4785
 11
-0.0999908
 21
11.4785
  0
LINE
  8
0
 10
-0.449997
 20
11.4785
 11
-0.449997
 21
11.6035
  0
LINE
  8
0
 10
-0.449997
 20
11.6035
 11
-0.249985
 21
11.6035
  0
LINE
  8
0
 10
-0.249985
 20
11.6035
 11
-0.249985
 21
11.4785
  0
LINE
  8
0
 10
-0.249985
 20
11.4785
 11
-0.449997
 21
11.4785
  0
LINE
  8
0
 10
-0.696457
 20
10.1214
 11
-0.71875
 21
10.1328
  0
LINE
  8
0
 10
-0.71875
 20
10.1328
 11
-0.73645
 21
10.1505
  0
LINE
  8
0
 10
-0.73645
 20
10.1505
 11
-0.747818
 21
10.1728
  0
LINE
  8
0
 10
-0.747818
 20
10.1728
 11
-0.751724
 21
10.1975
  0
LINE
  8
0
 10
-0.751724
 20
10.1975
 11
-0.751724
 21
11.341
  0
LINE
  8
0
 10
-0.751724
 20
11.341
 11
0.583466
 21
11.341
  0
LINE
  8
0
 10
0.583466
 20
11.341
 11
-0.624725
 21
10.1328
  0
LINE
  8
0
 10
-0.624725
 20
10.1328
 11
-0.647018
 21
10.1214
  0
LINE
  8
0
 10
-0.647018
 20
10.1214
 11
-0.671738
 21
10.1175
  0
LINE
  8
0
 10
-0.671738
 20
10.1175
 11
-0.696457
 21
10.1214
  0
LINE
  8
0
 10
0.647018
 20
8.19794
 11
0.624725
 21
8.2093
  0
LINE
  8
0
 10
0.624725
 20
8.2093
 11
-0.73645
 21
9.5705
  0
LINE
  8
0
 10
-0.73645
 20
9.5705
 11
-0.747818
 21
9.59279
  0
LINE
  8
0
 10
-0.747818
 20
9.59279
 11
-0.751724
 21
9.61751
  0
LINE
  8
0
 10
-0.751724
 20
9.61751
 11
-0.747818
 21
9.64223
  0
LINE
  8
0
 10
-0.747818
 20
9.64223
 11
-0.73645
 21
9.66452
  0
LINE
  8
0
 10
-0.73645
 20
9.66452
 11
0.624725
 21
11.0257
  0
LINE
  8
0
 10
0.624725
 20
11.0257
 11
0.647018
 21
11.0371
  0
LINE
  8
0
 10
0.647018
 20
11.0371
 11
0.671738
 21
11.041
  0
LINE
  8
0
 10
0.671738
 20
11.041
 11
0.696457
 21
11.0371
  0
LINE
  8
0
 10
0.696457
 20
11.0371
 11
0.71875
 21
11.0257
  0
LINE
  8
0
 10
0.71875
 20
11.0257
 11
0.73645
 21
11.008
  0
LINE
  8
0
 10
0.73645
 20
11.008
 11
0.747818
 21
10.9857
  0
LINE
  8
0
 10
0.747818
 20
10.9857
 11
0.751724
 21
10.961
  0
LINE
  8
0
 10
0.751724
 20
10.961
 11
0.751724
 21
8.27402
  0
LINE
  8
0
 10
0.751724
 20
8.27402
 11
0.747818
 21
8.2493
  0
LINE
  8
0
 10
0.747818
 20
8.2493
 11
0.73645
 21
8.22701
  0
LINE
  8
0
 10
0.73645
 20
8.22701
 11
0.71875
 21
8.2093
  0
LINE
  8
0
 10
0.71875
 20
8.2093
 11
0.696457
 21
8.19794
  0
LINE
  8
0
 10
0.696457
 20
8.19794
 11
0.671738
 21
8.19403
  0
LINE
  8
0
 10
0.671738
 20
8.19403
 11
0.647018
 21
8.19794
  0
LINE
  8
0
 10
-0.751724
 20
7.894
 11
-0.751724
 21
9.03749
  0
LINE
  8
0
 10
-0.751724
 20
9.03749
 11
-0.747818
 21
9.06221
  0
LINE
  8
0
 10
-0.747818
 20
9.06221
 11
-0.73645
 21
9.0845
  0
LINE
  8
0
 10
-0.73645
 20
9.0845
 11
-0.71875
 21
9.1022
  0
LINE
  8
0
 10
-0.71875
 20
9.1022
 11
-0.696457
 21
9.11357
  0
LINE
  8
0
 10
-0.696457
 20
9.11357
 11
-0.671738
 21
9.11748
  0
LINE
  8
0
 10
-0.671738
 20
9.11748
 11
-0.647018
 21
9.11357
  0
LINE
  8
0
 10
-0.647018
 20
9.11357
 11
-0.624725
 21
9.1022
  0
LINE
  8
0
 10
-0.624725
 20
9.1022
 11
0.583466
 21
7.894
  0
LINE
  8
0
 10
0.583466
 20
7.894
 11
-0.751724
 21
7.894
  0
LINE
  8
0
 10
-0.799988
 20
7.6315
 11
-0.799988
 21
7.7565
  0
LINE
  8
0
 10
-0.799988
 20
7.7565
 11
-0.599991
 21
7.7565
  0
LINE
  8
0
 10
-0.599991
 20
7.7565
 11
-0.599991
 21
7.6315
  0
LINE
  8
0
 10
-0.599991
 20
7.6315
 11
-0.799988
 21
7.6315
  0
LINE
  8
0
 10
-0.449997
 20
7.6315
 11
-0.449997
 21
7.7565
  0
LINE
  8
0
 10
-0.449997
 20
7.7565
 11
-0.249985
 21
7.7565
  0
LINE
  8
0
 10
-0.249985
 20
7.7565
 11
-0.249985
 21
7.6315
  0
LINE
  8
0
 10
-0.249985
 20
7.6315
 11
-0.449997
 21
7.6315
  0
LINE
  8
0
 10
-0.0999908
 20
7.6315
 11
-0.0999908
 21
7.7565
  0
LINE
  8
0
 10
-0.0999908
 20
7.7565
 11
0.0999908
 21
7.7565
  0
LINE
  8
0
 10
0.0999908
 20
7.7565
 11
0.0999908
 21
7.6315
  0
LINE
  8
0
 10
0.0999908
 20
7.6315
 11
-0.0999908
 21
7.6315
  0
LINE
  8
0
 10
0.249985
 20
7.6315
 11
0.249985
 21
7.7565
  0
LINE
  8
0
 10
0.249985
 20
7.7565
 11
0.449997
 21
7.7565
  0
LINE
  8
0
 10
0.449997
 20
7.7565
 11
0.449997
 21
7.6315
  0
LINE
  8
0
 10
0.449997
 20
7.6315
 11
0.249985
 21
7.6315
  0
LINE
  8
0
 10
0.599991
 20
7.6315
 11
0.599991
 21
7.7565
  0
LINE
  8
0
 10
0.599991
 20
7.7565
 11
0.799988
 21
7.7565
  0
LINE
  8
0
 10
0.799988
 20
7.7565
 11
0.799988
 21
7.6315
  0
LINE
  8
0
 10
0.799988
 20
7.6315
 11
0.599991
 21
7.6315
  0
LINE
  8
0
 10
-0.696457
 20
6.27443
 11
-0.71875
 21
6.2858
  0
LINE
  8
0
 10
-0.71875
 20
6.2858
 11
-0.73645
 21
6.3035
  0
LINE
  8
0
 10
-0.73645
 20
6.3035
 11
-0.747818
 21
6.32579
  0
LINE
  8
0
 10
-0.747818
 20
6.32579
 11
-0.751724
 21
6.35051
  0
LINE
  8
0
 10
-0.751724
 20
6.35051
 11
-0.751724
 21
7.494
  0
LINE
  8
0
 10
-0.751724
 20
7.494
 11
0.583466
 21
7.494
  0
LINE
  8
0
 10
0.583466
 20
7.494
 11
-0.624725
 21
6.2858
  0
LINE
  8
0
 10
-0.624725
 20
6.2858
 11
-0.647018
 21
6.27443
  0
LINE
  8
0
 10
-0.647018
 20
6.27443
 11
-0.671738
 21
6.27052
  0
LINE
  8
0
 10
-0.671738
 20
6.27052
 11
-0.696457
 21
6.27443
  0
LINE
  8
0
 10
0.647018
 20
4.35094
 11
0.624725
 21
4.3623
  0
LINE
  8
0
 10
0.624725
 20
4.3623
 11
-0.73645
 21
5.7235
  0
LINE
  8
0
 10
-0.73645
 20
5.7235
 11
-0.747818
 21
5.74579
  0
LINE
  8
0
 10
-0.747818
 20
5.74579
 11
-0.751724
 21
5.77051
  0
LINE
  8
0
 10
-0.751724
 20
5.77051
 11
-0.747818
 21
5.79523
  0
LINE
  8
0
 10
-0.747818
 20
5.79523
 11
-0.73645
 21
5.81752
  0
LINE
  8
0
 10
-0.73645
 20
5.81752
 11
0.624725
 21
7.17871
  0
LINE
  8
0
 10
0.624725
 20
7.17871
 11
0.647018
 21
7.19008
  0
LINE
  8
0
 10
0.647018
 20
7.19008
 11
0.671738
 21
7.19398
  0
LINE
  8
0
 10
0.671738
 20
7.19398
 11
0.696457
 21
7.19008
  0
LINE
  8
0
 10
0.696457
 20
7.19008
 11
0.71875
 21
7.17871
  0
LINE
  8
0
 10
0.71875
 20
7.17871
 11
0.73645
 21
7.16101
  0
LINE
  8
0
 10
0.73645
 20
7.16101
 11
0.747818
 21
7.13872
  0
LINE
  8
0
 10
0.747818
 20
7.13872
 11
0.751724
 21
7.114
  0
LINE
  8
0
 10
0.751724
 20
7.114
 11
0.751724
 21
4.42702
  0
LINE
  8
0
 10
0.751724
 20
4.42702
 11
0.747818
 21
4.4023
  0
LINE
  8
0
 10
0.747818
 20
4.4023
 11
0.73645
 21
4.38
  0
LINE
  8
0
 10
0.73645
 20
4.38
 11
0.71875
 21
4.3623
  0
LINE
  8
0
 10
0.71875
 20
4.3623
 11
0.696457
 21
4.35094
  0
LINE
  8
0
 10
0.696457
 20
4.35094
 11
0.671738
 21
4.34703
  0
LINE
  8
0
 10
0.671738
 20
4.34703
 11
0.647018
 21
4.35094
  0
LINE
  8
0
 10
-0.751724
 20
4.047
 11
-0.751724
 21
5.19048
  0
LINE
  8
0
 10
-0.751724
 20
5.19048
 11
-0.747818
 21
5.21519
  0
LINE
  8
0
 10
-0.747818
 20
5.21519
 11
-0.73645
 21
5.23749
  0
LINE
  8
0
 10
-0.73645
 20
5.23749
 11
-0.71875
 21
5.25519
  0
LINE
  8
0
 10
-0.71875
 20
5.25519
 11
-0.696457
 21
5.26656
  0
LINE
  8
0
 10
-0.696457
 20
5.26656
 11
-0.671738
 21
5.27046
  0
LINE
  8
0
 10
-0.671738
 20
5.27046
 11
-0.647018
 21
5.26656
  0
LINE
  8
0
 10
-0.647018
 20
5.26656
 11
-0.624725
 21
5.25519
  0
LINE
  8
0
 10
-0.624725
 20
5.25519
 11
0.58345
 21
4.047
  0
LINE
  8
0
 10
0.58345
 20
4.047
 11
-0.751724
 21
4.047
  0
LINE
  8
0
 10
0.599991
 20
3.7845
 11
0.599991
 21
3.9095
  0
LINE
  8
0
 10
0.599991
 20
3.9095
 11
0.799988
 21
3.9095
  0
LINE
  8
0
 10
0.799988
 20
3.9095
 11
0.799988
 21
3.7845
  0
LINE
  8
0
 10
0.799988
 20
3.7845
 11
0.599991
 21
3.7845
  0
LINE
  8
0
 10
0.249985
 20
3.7845
 11
0.249985
 21
3.9095
  0
LINE
  8
0
 10
0.249985
 20
3.9095
 11
0.449997
 21
3.9095
  0
LINE
  8
0
 10
0.449997
 20
3.9095
 11
0.449997
 21
3.7845
  0
LINE
  8
0
 10
0.449997
 20
3.7845
 11
0.249985
 21
3.7845
  0
LINE
  8
0
 10
-0.0999908
 20
3.7845
 11
-0.0999908
 21
3.9095
  0
LINE
  8
0
 10
-0.0999908
 20
3.9095
 11
0.0999908
 21
3.9095
  0
LINE
  8
0
 10
0.0999908
 20
3.9095
 11
0.0999908
 21
3.7845
  0
LINE
  8
0
 10
0.0999908
 20
3.7845
 11
-0.0999908
 21
3.7845
  0
LINE
  8
0
 10
-0.449997
 20
3.7845
 11
-0.449997
 21
3.9095
  0
LINE
  8
0
 10
-0.449997
 20
3.9095
 11
-0.249985
 21
3.9095
  0
LINE
  8
0
 10
-0.249985
 20
3.9095
 11
-0.249985
 21
3.7845
  0
LINE
  8
0
 10
-0.249985
 20
3.7845
 11
-0.449997
 21
3.7845
  0
LINE
  8
0
 10
-0.799988
 20
3.7845
 11
-0.799988
 21
3.9095
  0
LINE
  8
0
 10
-0.799988
 20
3.9095
 11
-0.599991
 21
3.9095
  0
LINE
  8
0
 10
-0.599991
 20
3.9095
 11
-0.599991
 21
3.7845
  0
LINE
  8
0
 10
-0.599991
 20
3.7845
 11
-0.799988
 21
3.7845
  0
LINE
  8
0
 10
-0.696457
 20
2.42741
 11
-0.71875
 21
2.43878
  0
LINE
  8
0
 10
-0.71875
 20
2.43878
 11
-0.73645
 21
2.45648
  0
LINE
  8
0
 10
-0.73645
 20
2.45648
 11
-0.747818
 21
2.47878
  0
LINE
  8
0
 10
-0.747818
 20
2.47878
 11
-0.751724
 21
2.50349
  0
LINE
  8
0
 10
-0.751724
 20
2.50349
 11
-0.751724
 21
3.647
  0
LINE
  8
0
 10
-0.751724
 20
3.647
 11
0.583481
 21
3.647
  0
LINE
  8
0
 10
0.583481
 20
3.647
 11
-0.624725
 21
2.43878
  0
LINE
  8
0
 10
-0.624725
 20
2.43878
 11
-0.647018
 21
2.42741
  0
LINE
  8
0
 10
-0.647018
 20
2.42741
 11
-0.671738
 21
2.42351
  0
LINE
  8
0
 10
-0.671738
 20
2.42351
 11
-0.696457
 21
2.42741
  0
LINE
  8
0
 10
0.647018
 20
0.503922
 11
0.624725
 21
0.515289
  0
LINE
  8
0
 10
0.624725
 20
0.515289
 11
-0.73645
 21
1.87648
  0
LINE
  8
0
 10
-0.73645
 20
1.87648
 11
-0.747818
 21
1.89877
  0
LINE
  8
0
 10
-0.747818
 20
1.89877
 11
-0.751724
 21
1.92349
  0
LINE
  8
0
 10
-0.751724
 20
1.92349
 11
-0.747818
 21
1.94821
  0
LINE
  8
0
 10
-0.747818
 20
1.94821
 11
-0.73645
 21
1.9705
  0
LINE
  8
0
 10
-0.73645
 20
1.9705
 11
0.624725
 21
3.3317
  0
LINE
  8
0
 10
0.624725
 20
3.3317
 11
0.647018
 21
3.34306
  0
LINE
  8
0
 10
0.647018
 20
3.34306
 11
0.671738
 21
3.34697
  0
LINE
  8
0
 10
0.671738
 20
3.34697
 11
0.696457
 21
3.34306
  0
LINE
  8
0
 10
0.696457
 20
3.34306
 11
0.71875
 21
3.3317
  0
LINE
  8
0
 10
0.71875
 20
3.3317
 11
0.73645
 21
3.314
  0
LINE
  8
0
 10
0.73645
 20
3.314
 11
0.747818
 21
3.2917
  0
LINE
  8
0
 10
0.747818
 20
3.2917
 11
0.751724
 21
3.26698
  0
LINE
  8
0
 10
0.751724
 20
3.26698
 11
0.751724
 21
0.580002
  0
LINE
  8
0
 10
0.751724
 20
0.580002
 11
0.747818
 21
0.555283
  0
LINE
  8
0
 10
0.747818
 20
0.555283
 11
0.73645
 21
0.53299
  0
LINE
  8
0
 10
0.73645
 20
0.53299
 11
0.71875
 21
0.515289
  0
LINE
  8
0
 10
0.71875
 20
0.515289
 11
0.696457
 21
0.503922
  0
LINE
  8
0
 10
0.696457
 20
0.503922
 11
0.671738
 21
0.500015
  0
LINE
  8
0
 10
0.671738
 20
0.500015
 11
0.647018
 21
0.503922
  0
LINE
  8
0
 10
-0.751724
 20
0.199997
 11
-0.751724
 21
1.34348
  0
LINE
  8
0
 10
-0.751724
 20
1.34348
 11
-0.747818
 21
1.36819
  0
LINE
  8
0
 10
-0.747818
 20
1.36819
 11
-0.73645
 21
1.39049
  0
LINE
  8
0
 10
-0.73645
 20
1.39049
 11
-0.71875
 21
1.40819
  0
LINE
  8
0
 10
-0.71875
 20
1.40819
 11
-0.696457
 21
1.41956
  0
LINE
  8
0
 10
-0.696457
 20
1.41956
 11
-0.671738
 21
1.42346
  0
LINE
  8
0
 10
-0.671738
 20
1.42346
 11
-0.647018
 21
1.41956
  0
LINE
  8
0
 10
-0.647018
 20
1.41956
 11
-0.624725
 21
1.40819
  0
LINE
  8
0
 10
-0.624725
 20
1.40819
 11
0.58345
 21
0.199997
  0
LINE
  8
0
 10
0.58345
 20
0.199997
 11
-0.751724
 21
0.199997
  0
LINE
  8
0
 10
0.599991
 20
-0.0625
 11
0.599991
 21
0.0624847
  0
LINE
  8
0
 10
0.599991
 20
0.0624847
 11
0.799988
 21
0.0624847
  0
LINE
  8
0
 10
0.799988
 20
0.0624847
 11
0.799988
 21
-0.0625
  0
LINE
  8
0
 10
0.799988
 20
-0.0625
 11
0.599991
 21
-0.0625
  0
LINE
  8
0
 10
0.249985
 20
-0.0625
 11
0.249985
 21
0.0624847
  0
LINE
  8
0
 10
0.249985
 20
0.0624847
 11
0.449997
 21
0.0624847
  0
LINE
  8
0
 10
0.449997
 20
0.0624847
 11
0.449997
 21
-0.0625
  0
LINE
  8
0
 10
0.449997
 20
-0.0625
 11
0.249985
 21
-0.0625
  0
LINE
  8
0
 10
-0.0999908
 20
-0.0625
 11
-0.0999908
 21
0.0624847
  0
LINE
  8
0
 10
-0.0999908
 20
0.0624847
 11
0.0999908
 21
0.0624847
  0
LINE
  8
0
 10
0.0999908
 20
0.0624847
 11
0.0999908
 21
-0.0625
  0
LINE
  8
0
 10
0.0999908
 20
-0.0625
 11
-0.0999908
 21
-0.0625
  0
LINE
  8
0
 10
-0.449997
 20
-0.0625
 11
-0.449997
 21
0.0624847
  0
LINE
  8
0
 10
-0.449997
 20
0.0624847
 11
-0.249985
 21
0.0624847
  0
LINE
  8
0
 10
-0.249985
 20
0.0624847
 11
-0.249985
 21
-0.0625
  0
LINE
  8
0
 10
-0.249985
 20
-0.0625
 11
-0.449997
 21
-0.0625
  0
LINE
  8
0
 10
-0.799988
 20
-0.0625
 11
-0.799988
 21
0.0624847
  0
LINE
  8
0
 10
-0.799988
 20
0.0624847
 11
-0.599991
 21
0.0624847
  0
LINE
  8
0
 10
-0.599991
 20
0.0624847
 11
-0.599991
 21
-0.0625
  0
LINE
  8
0
 10
-0.599991
 20
-0.0625
 11
-0.799988
 21
-0.0625
  0
ENDSEC
  0
SECTION
  2
OBJECTS
  0
DICTIONARY
  0
ENDSEC
  0
EOF
