  0
SECTION
  2
BLOCKS
  0
ENDSEC
  0
SECTION
  2
ENTITIES
  0
LINE
  8
0
 10
0.110962
 20
-0.987808
 11
0.217041
 21
-1.04906
  0
LINE
  8
0
 10
0.217041
 20
-1.04906
 11
0.317047
 21
-0.875854
  0
LINE
  8
0
 10
0.317047
 20
-0.875854
 11
0.210953
 21
-0.814606
  0
LINE
  8
0
 10
0.210953
 20
-0.814606
 11
0.28595
 21
-0.684708
  0
LINE
  8
0
 10
0.28595
 20
-0.684708
 11
0.392044
 21
-0.745956
  0
LINE
  8
0
 10
0.392044
 20
-0.745956
 11
0.49205
 21
-0.572739
  0
LINE
  8
0
 10
0.49205
 20
-0.572739
 11
0.385956
 21
-0.51149
  0
LINE
  8
0
 10
0.385956
 20
-0.51149
 11
0.460953
 21
-0.381592
  0
LINE
  8
0
 10
0.460953
 20
-0.381592
 11
0.567047
 21
-0.442841
  0
LINE
  8
0
 10
0.567047
 20
-0.442841
 11
0.667038
 21
-0.269653
  0
LINE
  8
0
 10
0.667038
 20
-0.269653
 11
0.560944
 21
-0.208405
  0
LINE
  8
0
 10
0.560944
 20
-0.208405
 11
0.635941
 21
-0.0785065
  0
LINE
  8
0
 10
0.635941
 20
-0.0785065
 11
0.742035
 21
-0.139755
  0
LINE
  8
0
 10
0.742035
 20
-0.139755
 11
0.842041
 21
0.0334473
  0
LINE
  8
0
 10
0.842041
 20
0.0334473
 11
0.735947
 21
0.094696
  0
LINE
  8
0
 10
0.735947
 20
0.094696
 11
0.810928
 21
0.224594
  0
LINE
  8
0
 10
0.810928
 20
0.224594
 11
0.917038
 21
0.163345
  0
LINE
  8
0
 10
0.917038
 20
0.163345
 11
1.01703
 21
0.336548
  0
LINE
  8
0
 10
1.01703
 20
0.336548
 11
0.910934
 21
0.397812
  0
LINE
  8
0
 10
0.910934
 20
0.397812
 11
1.0219
 21
0.589996
  0
LINE
  8
0
 10
1.0219
 20
0.589996
 11
0.799988
 21
0.589996
  0
LINE
  8
0
 10
0.799988
 20
0.589996
 11
0.799988
 21
0.712494
  0
LINE
  8
0
 10
0.799988
 20
0.712494
 11
0.599991
 21
0.712494
  0
LINE
  8
0
 10
0.599991
 20
0.712494
 11
0.599991
 21
0.589996
  0
LINE
  8
0
 10
0.599991
 20
0.589996
 11
0.449997
 21
0.589996
  0
LINE
  8
0
 10
0.449997
 20
0.589996
 11
0.449997
 21
0.712494
  0
LINE
  8
0
 10
0.449997
 20
0.712494
 11
0.249985
 21
0.712494
  0
LINE
  8
0
 10
0.249985
 20
0.712494
 11
0.249985
 21
0.589996
  0
LINE
  8
0
 10
0.249985
 20
0.589996
 11
0.0999908
 21
0.589996
  0
LINE
  8
0
 10
0.0999908
 20
0.589996
 11
0.0999908
 21
0.712494
  0
LINE
  8
0
 10
0.0999908
 20
0.712494
 11
-0.0999908
 21
0.712494
  0
LINE
  8
0
 10
-0.0999908
 20
0.712494
 11
-0.0999908
 21
0.589996
  0
LINE
  8
0
 10
-0.0999908
 20
0.589996
 11
-0.249985
 21
0.589996
  0
LINE
  8
0
 10
-0.249985
 20
0.589996
 11
-0.249985
 21
0.712494
  0
LINE
  8
0
 10
-0.249985
 20
0.712494
 11
-0.449997
 21
0.712494
  0
LINE
  8
0
 10
-0.449997
 20
0.712494
 11
-0.449997
 21
0.589996
  0
LINE
  8
0
 10
-0.449997
 20
0.589996
 11
-0.599991
 21
0.589996
  0
LINE
  8
0
 10
-0.599991
 20
0.589996
 11
-0.599991
 21
0.712494
  0
LINE
  8
0
 10
-0.599991
 20
0.712494
 11
-0.799988
 21
0.712494
  0
LINE
  8
0
 10
-0.799988
 20
0.712494
 11
-0.799988
 21
0.589996
  0
LINE
  8
0
 10
-0.799988
 20
0.589996
 11
-1.0219
 21
0.589996
  0
LINE
  8
0
 10
-1.0219
 20
0.589996
 11
-0.910934
 21
0.397812
  0
LINE
  8
0
 10
-0.910934
 20
0.397812
 11
-1.01703
 21
0.336548
  0
LINE
  8
0
 10
-1.01703
 20
0.336548
 11
-0.917038
 21
0.163345
  0
LINE
  8
0
 10
-0.917038
 20
0.163345
 11
-0.810928
 21
0.224594
  0
LINE
  8
0
 10
-0.810928
 20
0.224594
 11
-0.735947
 21
0.094696
  0
LINE
  8
0
 10
-0.735947
 20
0.094696
 11
-0.842041
 21
0.0334473
  0
LINE
  8
0
 10
-0.842041
 20
0.0334473
 11
-0.742035
 21
-0.139755
  0
LINE
  8
0
 10
-0.742035
 20
-0.139755
 11
-0.635941
 21
-0.0785065
  0
LINE
  8
0
 10
-0.635941
 20
-0.0785065
 11
-0.560944
 21
-0.208405
  0
LINE
  8
0
 10
-0.560944
 20
-0.208405
 11
-0.667038
 21
-0.269653
  0
LINE
  8
0
 10
-0.667038
 20
-0.269653
 11
-0.567047
 21
-0.442841
  0
LINE
  8
0
 10
-0.567047
 20
-0.442841
 11
-0.460953
 21
-0.381592
  0
LINE
  8
0
 10
-0.460953
 20
-0.381592
 11
-0.385956
 21
-0.51149
  0
LINE
  8
0
 10
-0.385956
 20
-0.51149
 11
-0.49205
 21
-0.572739
  0
LINE
  8
0
 10
-0.49205
 20
-0.572739
 11
-0.392044
 21
-0.745956
  0
LINE
  8
0
 10
-0.392044
 20
-0.745956
 11
-0.28595
 21
-0.684708
  0
LINE
  8
0
 10
-0.28595
 20
-0.684708
 11
-0.210953
 21
-0.814606
  0
LINE
  8
0
 10
-0.210953
 20
-0.814606
 11
-0.317047
 21
-0.875854
  0
LINE
  8
0
 10
-0.317047
 20
-0.875854
 11
-0.217041
 21
-1.04906
  0
LINE
  8
0
 10
-0.217041
 20
-1.04906
 11
-0.110962
 21
-0.987808
  0
LINE
  8
0
 10
-0.110962
 20
-0.987808
 11
0
 21
-1.17999
  0
LINE
  8
0
 10
0
 20
-1.17999
 11
0.110962
 21
-0.987808
  0
LINE
  8
0
 10
-0.030899
 20
-0.745087
 11
-0.0587769
 21
-0.730881
  0
LINE
  8
0
 10
-0.0587769
 20
-0.730881
 11
-0.0808868
 21
-0.708771
  0
LINE
  8
0
 10
-0.0808868
 20
-0.708771
 11
-0.643799
 21
0.26622
  0
LINE
  8
0
 10
-0.643799
 20
0.26622
 11
-0.658005
 21
0.294098
  0
LINE
  8
0
 10
-0.658005
 20
0.294098
 11
-0.662903
 21
0.324997
  0
LINE
  8
0
 10
-0.662903
 20
0.324997
 11
-0.658005
 21
0.355896
  0
LINE
  8
0
 10
-0.658005
 20
0.355896
 11
-0.643799
 21
0.383774
  0
LINE
  8
0
 10
-0.643799
 20
0.383774
 11
-0.621689
 21
0.405884
  0
LINE
  8
0
 10
-0.621689
 20
0.405884
 11
-0.593811
 21
0.42009
  0
LINE
  8
0
 10
-0.593811
 20
0.42009
 11
-0.562912
 21
0.424988
  0
LINE
  8
0
 10
-0.562912
 20
0.424988
 11
0.562912
 21
0.424988
  0
LINE
  8
0
 10
0.562912
 20
0.424988
 11
0.593811
 21
0.42009
  0
LINE
  8
0
 10
0.593811
 20
0.42009
 11
0.621689
 21
0.405884
  0
LINE
  8
0
 10
0.621689
 20
0.405884
 11
0.643799
 21
0.383774
  0
LINE
  8
0
 10
0.643799
 20
0.383774
 11
0.658005
 21
0.355896
  0
LINE
  8
0
 10
0.658005
 20
0.355896
 11
0.662903
 21
0.324997
  0
LINE
  8
0
 10
0.662903
 20
0.324997
 11
0.658005
 21
0.294098
  0
LINE
  8
0
 10
0.658005
 20
0.294098
 11
0.643799
 21
0.26622
  0
LINE
  8
0
 10
0.643799
 20
0.26622
 11
0.0808868
 21
-0.708771
  0
LINE
  8
0
 10
0.0808868
 20
-0.708771
 11
0.0587769
 21
-0.730881
  0
LINE
  8
0
 10
0.0587769
 20
-0.730881
 11
0.030899
 21
-0.745087
  0
LINE
  8
0
 10
0.030899
 20
-0.745087
 11
0
 21
-0.749985
  0
LINE
  8
0
 10
0
 20
-0.749985
 11
-0.030899
 21
-0.745087
  0
ENDSEC
  0
SECTION
  2
OBJECTS
  0
DICTIONARY
  0
ENDSEC
  0
EOF
