  0
SECTION
  2
BLOCKS
  0
ENDSEC
  0
SECTION
  2
ENTITIES
  0
LINE
  8
0
 10
1
 20
19.435
 11
-1
 21
19.435
  0
LINE
  8
0
 10
-1
 20
19.435
 11
-1
 21
-0.199997
  0
LINE
  8
0
 10
-1
 20
-0.199997
 11
1
 21
-0.199997
  0
LINE
  8
0
 10
1
 20
-0.199997
 11
1
 21
19.435
  0
LINE
  8
0
 10
0.599991
 20
19.1725
 11
0.599991
 21
19.2975
  0
LINE
  8
0
 10
0.599991
 20
19.2975
 11
0.799988
 21
19.2975
  0
LINE
  8
0
 10
0.799988
 20
19.2975
 11
0.799988
 21
19.1725
  0
LINE
  8
0
 10
0.799988
 20
19.1725
 11
0.599991
 21
19.1725
  0
LINE
  8
0
 10
0.249985
 20
19.1725
 11
0.249985
 21
19.2975
  0
LINE
  8
0
 10
0.249985
 20
19.2975
 11
0.449997
 21
19.2975
  0
LINE
  8
0
 10
0.449997
 20
19.2975
 11
0.449997
 21
19.1725
  0
LINE
  8
0
 10
0.449997
 20
19.1725
 11
0.249985
 21
19.1725
  0
LINE
  8
0
 10
-0.0999908
 20
19.1725
 11
-0.0999908
 21
19.2975
  0
LINE
  8
0
 10
-0.0999908
 20
19.2975
 11
0.0999908
 21
19.2975
  0
LINE
  8
0
 10
0.0999908
 20
19.2975
 11
0.0999908
 21
19.1725
  0
LINE
  8
0
 10
0.0999908
 20
19.1725
 11
-0.0999908
 21
19.1725
  0
LINE
  8
0
 10
-0.449997
 20
19.1725
 11
-0.449997
 21
19.2975
  0
LINE
  8
0
 10
-0.449997
 20
19.2975
 11
-0.249985
 21
19.2975
  0
LINE
  8
0
 10
-0.249985
 20
19.2975
 11
-0.249985
 21
19.1725
  0
LINE
  8
0
 10
-0.249985
 20
19.1725
 11
-0.449997
 21
19.1725
  0
LINE
  8
0
 10
-0.799988
 20
19.1725
 11
-0.799988
 21
19.2975
  0
LINE
  8
0
 10
-0.799988
 20
19.2975
 11
-0.599991
 21
19.2975
  0
LINE
  8
0
 10
-0.599991
 20
19.2975
 11
-0.599991
 21
19.1725
  0
LINE
  8
0
 10
-0.599991
 20
19.1725
 11
-0.799988
 21
19.1725
  0
LINE
  8
0
 10
0.599991
 20
15.3255
 11
0.599991
 21
15.4505
  0
LINE
  8
0
 10
0.599991
 20
15.4505
 11
0.799988
 21
15.4505
  0
LINE
  8
0
 10
0.799988
 20
15.4505
 11
0.799988
 21
15.3255
  0
LINE
  8
0
 10
0.799988
 20
15.3255
 11
0.599991
 21
15.3255
  0
LINE
  8
0
 10
0.249985
 20
15.3255
 11
0.249985
 21
15.4505
  0
LINE
  8
0
 10
0.249985
 20
15.4505
 11
0.449997
 21
15.4505
  0
LINE
  8
0
 10
0.449997
 20
15.4505
 11
0.449997
 21
15.3255
  0
LINE
  8
0
 10
0.449997
 20
15.3255
 11
0.249985
 21
15.3255
  0
LINE
  8
0
 10
-0.0999908
 20
15.3255
 11
-0.0999908
 21
15.4505
  0
LINE
  8
0
 10
-0.0999908
 20
15.4505
 11
0.0999908
 21
15.4505
  0
LINE
  8
0
 10
0.0999908
 20
15.4505
 11
0.0999908
 21
15.3255
  0
LINE
  8
0
 10
0.0999908
 20
15.3255
 11
-0.0999908
 21
15.3255
  0
LINE
  8
0
 10
-0.449997
 20
15.3255
 11
-0.449997
 21
15.4505
  0
LINE
  8
0
 10
-0.449997
 20
15.4505
 11
-0.249985
 21
15.4505
  0
LINE
  8
0
 10
-0.249985
 20
15.4505
 11
-0.249985
 21
15.3255
  0
LINE
  8
0
 10
-0.249985
 20
15.3255
 11
-0.449997
 21
15.3255
  0
LINE
  8
0
 10
-0.799988
 20
15.3255
 11
-0.799988
 21
15.4505
  0
LINE
  8
0
 10
-0.799988
 20
15.4505
 11
-0.599991
 21
15.4505
  0
LINE
  8
0
 10
-0.599991
 20
15.4505
 11
-0.599991
 21
15.3255
  0
LINE
  8
0
 10
-0.599991
 20
15.3255
 11
-0.799988
 21
15.3255
  0
LINE
  8
0
 10
-0.799988
 20
11.4785
 11
-0.799988
 21
11.6035
  0
LINE
  8
0
 10
-0.799988
 20
11.6035
 11
-0.599991
 21
11.6035
  0
LINE
  8
0
 10
-0.599991
 20
11.6035
 11
-0.599991
 21
11.4785
  0
LINE
  8
0
 10
-0.599991
 20
11.4785
 11
-0.799988
 21
11.4785
  0
LINE
  8
0
 10
-0.449997
 20
11.4785
 11
-0.449997
 21
11.6035
  0
LINE
  8
0
 10
-0.449997
 20
11.6035
 11
-0.249985
 21
11.6035
  0
LINE
  8
0
 10
-0.249985
 20
11.6035
 11
-0.249985
 21
11.4785
  0
LINE
  8
0
 10
-0.249985
 20
11.4785
 11
-0.449997
 21
11.4785
  0
LINE
  8
0
 10
-0.0999908
 20
11.4785
 11
-0.0999908
 21
11.6035
  0
LINE
  8
0
 10
-0.0999908
 20
11.6035
 11
0.0999908
 21
11.6035
  0
LINE
  8
0
 10
0.0999908
 20
11.6035
 11
0.0999908
 21
11.4785
  0
LINE
  8
0
 10
0.0999908
 20
11.4785
 11
-0.0999908
 21
11.4785
  0
LINE
  8
0
 10
0.249985
 20
11.4785
 11
0.249985
 21
11.6035
  0
LINE
  8
0
 10
0.249985
 20
11.6035
 11
0.449997
 21
11.6035
  0
LINE
  8
0
 10
0.449997
 20
11.6035
 11
0.449997
 21
11.4785
  0
LINE
  8
0
 10
0.449997
 20
11.4785
 11
0.249985
 21
11.4785
  0
LINE
  8
0
 10
0.599991
 20
11.4785
 11
0.599991
 21
11.6035
  0
LINE
  8
0
 10
0.599991
 20
11.6035
 11
0.799988
 21
11.6035
  0
LINE
  8
0
 10
0.799988
 20
11.6035
 11
0.799988
 21
11.4785
  0
LINE
  8
0
 10
0.799988
 20
11.4785
 11
0.599991
 21
11.4785
  0
LINE
  8
0
 10
0.599991
 20
7.6315
 11
0.599991
 21
7.7565
  0
LINE
  8
0
 10
0.599991
 20
7.7565
 11
0.799988
 21
7.7565
  0
LINE
  8
0
 10
0.799988
 20
7.7565
 11
0.799988
 21
7.6315
  0
LINE
  8
0
 10
0.799988
 20
7.6315
 11
0.599991
 21
7.6315
  0
LINE
  8
0
 10
0.249985
 20
7.6315
 11
0.249985
 21
7.7565
  0
LINE
  8
0
 10
0.249985
 20
7.7565
 11
0.449997
 21
7.7565
  0
LINE
  8
0
 10
0.449997
 20
7.7565
 11
0.449997
 21
7.6315
  0
LINE
  8
0
 10
0.449997
 20
7.6315
 11
0.249985
 21
7.6315
  0
LINE
  8
0
 10
-0.0999908
 20
7.6315
 11
-0.0999908
 21
7.7565
  0
LINE
  8
0
 10
-0.0999908
 20
7.7565
 11
0.0999908
 21
7.7565
  0
LINE
  8
0
 10
0.0999908
 20
7.7565
 11
0.0999908
 21
7.6315
  0
LINE
  8
0
 10
0.0999908
 20
7.6315
 11
-0.0999908
 21
7.6315
  0
LINE
  8
0
 10
-0.449997
 20
7.6315
 11
-0.449997
 21
7.7565
  0
LINE
  8
0
 10
-0.449997
 20
7.7565
 11
-0.249985
 21
7.7565
  0
LINE
  8
0
 10
-0.249985
 20
7.7565
 11
-0.249985
 21
7.6315
  0
LINE
  8
0
 10
-0.249985
 20
7.6315
 11
-0.449997
 21
7.6315
  0
LINE
  8
0
 10
-0.799988
 20
7.6315
 11
-0.799988
 21
7.7565
  0
LINE
  8
0
 10
-0.799988
 20
7.7565
 11
-0.599991
 21
7.7565
  0
LINE
  8
0
 10
-0.599991
 20
7.7565
 11
-0.599991
 21
7.6315
  0
LINE
  8
0
 10
-0.599991
 20
7.6315
 11
-0.799988
 21
7.6315
  0
LINE
  8
0
 10
-0.799988
 20
3.7845
 11
-0.799988
 21
3.9095
  0
LINE
  8
0
 10
-0.799988
 20
3.9095
 11
-0.599991
 21
3.9095
  0
LINE
  8
0
 10
-0.599991
 20
3.9095
 11
-0.599991
 21
3.7845
  0
LINE
  8
0
 10
-0.599991
 20
3.7845
 11
-0.799988
 21
3.7845
  0
LINE
  8
0
 10
-0.449997
 20
3.7845
 11
-0.449997
 21
3.9095
  0
LINE
  8
0
 10
-0.449997
 20
3.9095
 11
-0.249985
 21
3.9095
  0
LINE
  8
0
 10
-0.249985
 20
3.9095
 11
-0.249985
 21
3.7845
  0
LINE
  8
0
 10
-0.249985
 20
3.7845
 11
-0.449997
 21
3.7845
  0
LINE
  8
0
 10
-0.0999908
 20
3.7845
 11
-0.0999908
 21
3.9095
  0
LINE
  8
0
 10
-0.0999908
 20
3.9095
 11
0.0999908
 21
3.9095
  0
LINE
  8
0
 10
0.0999908
 20
3.9095
 11
0.0999908
 21
3.7845
  0
LINE
  8
0
 10
0.0999908
 20
3.7845
 11
-0.0999908
 21
3.7845
  0
LINE
  8
0
 10
0.249985
 20
3.7845
 11
0.249985
 21
3.9095
  0
LINE
  8
0
 10
0.249985
 20
3.9095
 11
0.449997
 21
3.9095
  0
LINE
  8
0
 10
0.449997
 20
3.9095
 11
0.449997
 21
3.7845
  0
LINE
  8
0
 10
0.449997
 20
3.7845
 11
0.249985
 21
3.7845
  0
LINE
  8
0
 10
0.599991
 20
3.7845
 11
0.599991
 21
3.9095
  0
LINE
  8
0
 10
0.599991
 20
3.9095
 11
0.799988
 21
3.9095
  0
LINE
  8
0
 10
0.799988
 20
3.9095
 11
0.799988
 21
3.7845
  0
LINE
  8
0
 10
0.799988
 20
3.7845
 11
0.599991
 21
3.7845
  0
LINE
  8
0
 10
0.599991
 20
-0.0625
 11
0.599991
 21
0.0624847
  0
LINE
  8
0
 10
0.599991
 20
0.0624847
 11
0.799988
 21
0.0624847
  0
LINE
  8
0
 10
0.799988
 20
0.0624847
 11
0.799988
 21
-0.0625
  0
LINE
  8
0
 10
0.799988
 20
-0.0625
 11
0.599991
 21
-0.0625
  0
LINE
  8
0
 10
0.249985
 20
-0.0625
 11
0.249985
 21
0.0624847
  0
LINE
  8
0
 10
0.249985
 20
0.0624847
 11
0.449997
 21
0.0624847
  0
LINE
  8
0
 10
0.449997
 20
0.0624847
 11
0.449997
 21
-0.0625
  0
LINE
  8
0
 10
0.449997
 20
-0.0625
 11
0.249985
 21
-0.0625
  0
LINE
  8
0
 10
-0.0999908
 20
-0.0625
 11
-0.0999908
 21
0.0624847
  0
LINE
  8
0
 10
-0.0999908
 20
0.0624847
 11
0.0999908
 21
0.0624847
  0
LINE
  8
0
 10
0.0999908
 20
0.0624847
 11
0.0999908
 21
-0.0625
  0
LINE
  8
0
 10
0.0999908
 20
-0.0625
 11
-0.0999908
 21
-0.0625
  0
LINE
  8
0
 10
-0.449997
 20
-0.0625
 11
-0.449997
 21
0.0624847
  0
LINE
  8
0
 10
-0.449997
 20
0.0624847
 11
-0.249985
 21
0.0624847
  0
LINE
  8
0
 10
-0.249985
 20
0.0624847
 11
-0.249985
 21
-0.0625
  0
LINE
  8
0
 10
-0.249985
 20
-0.0625
 11
-0.449997
 21
-0.0625
  0
LINE
  8
0
 10
-0.799988
 20
-0.0625
 11
-0.799988
 21
0.0624847
  0
LINE
  8
0
 10
-0.799988
 20
0.0624847
 11
-0.599991
 21
0.0624847
  0
LINE
  8
0
 10
-0.599991
 20
0.0624847
 11
-0.599991
 21
-0.0625
  0
LINE
  8
0
 10
-0.599991
 20
-0.0625
 11
-0.799988
 21
-0.0625
  0
ENDSEC
  0
SECTION
  2
OBJECTS
  0
DICTIONARY
  0
ENDSEC
  0
EOF
