  0
SECTION
  2
BLOCKS
  0
ENDSEC
  0
SECTION
  2
ENTITIES
  0
LINE
  8
0
 10
-0.875
 20
19
 11
-1
 21
19
  0
LINE
  8
0
 10
-1
 20
19
 11
-1
 21
18.5
  0
LINE
  8
0
 10
-1
 20
18.5
 11
-0.875
 21
18.5
  0
LINE
  8
0
 10
-0.875
 20
18.5
 11
-0.875
 21
18
  0
LINE
  8
0
 10
-0.875
 20
18
 11
-1
 21
18
  0
LINE
  8
0
 10
-1
 20
18
 11
-1
 21
17.5
  0
LINE
  8
0
 10
-1
 20
17.5
 11
-0.875
 21
17.5
  0
LINE
  8
0
 10
-0.875
 20
17.5
 11
-0.875
 21
17
  0
LINE
  8
0
 10
-0.875
 20
17
 11
-1
 21
17
  0
LINE
  8
0
 10
-1
 20
17
 11
-1
 21
16.5
  0
LINE
  8
0
 10
-1
 20
16.5
 11
-0.875
 21
16.5
  0
LINE
  8
0
 10
-0.875
 20
16.5
 11
-0.875
 21
16
  0
LINE
  8
0
 10
-0.875
 20
16
 11
-1
 21
16
  0
LINE
  8
0
 10
-1
 20
16
 11
-1
 21
15.5
  0
LINE
  8
0
 10
-1
 20
15.5
 11
-0.875
 21
15.5
  0
LINE
  8
0
 10
-0.875
 20
15.5
 11
-0.875
 21
15
  0
LINE
  8
0
 10
-0.875
 20
15
 11
-1
 21
15
  0
LINE
  8
0
 10
-1
 20
15
 11
-1
 21
14.5
  0
LINE
  8
0
 10
-1
 20
14.5
 11
-0.875
 21
14.5
  0
LINE
  8
0
 10
-0.875
 20
14.5
 11
-0.875
 21
14
  0
LINE
  8
0
 10
-0.875
 20
14
 11
-1
 21
14
  0
LINE
  8
0
 10
-1
 20
14
 11
-1
 21
13.5
  0
LINE
  8
0
 10
-1
 20
13.5
 11
-0.875
 21
13.5
  0
LINE
  8
0
 10
-0.875
 20
13.5
 11
-0.875
 21
13
  0
LINE
  8
0
 10
-0.875
 20
13
 11
-1
 21
13
  0
LINE
  8
0
 10
-1
 20
13
 11
-1
 21
12.5
  0
LINE
  8
0
 10
-1
 20
12.5
 11
-0.875
 21
12.5
  0
LINE
  8
0
 10
-0.875
 20
12.5
 11
-0.875
 21
12
  0
LINE
  8
0
 10
-0.875
 20
12
 11
-1
 21
12
  0
LINE
  8
0
 10
-1
 20
12
 11
-1
 21
11.5
  0
LINE
  8
0
 10
-1
 20
11.5
 11
-0.875
 21
11.5
  0
LINE
  8
0
 10
-0.875
 20
11.5
 11
-0.875
 21
11
  0
LINE
  8
0
 10
-0.875
 20
11
 11
-1
 21
11
  0
LINE
  8
0
 10
-1
 20
11
 11
-1
 21
10.5
  0
LINE
  8
0
 10
-1
 20
10.5
 11
-0.875
 21
10.5
  0
LINE
  8
0
 10
-0.875
 20
10.5
 11
-0.875
 21
10
  0
LINE
  8
0
 10
-0.875
 20
10
 11
-1
 21
10
  0
LINE
  8
0
 10
-1
 20
10
 11
-1
 21
9.5
  0
LINE
  8
0
 10
-1
 20
9.5
 11
-0.875
 21
9.5
  0
LINE
  8
0
 10
-0.875
 20
9.5
 11
-0.875
 21
9
  0
LINE
  8
0
 10
-0.875
 20
9
 11
-1
 21
9
  0
LINE
  8
0
 10
-1
 20
9
 11
-1
 21
8.5
  0
LINE
  8
0
 10
-1
 20
8.5
 11
-0.875
 21
8.5
  0
LINE
  8
0
 10
-0.875
 20
8.5
 11
-0.875
 21
8
  0
LINE
  8
0
 10
-0.875
 20
8
 11
-1
 21
8
  0
LINE
  8
0
 10
-1
 20
8
 11
-1
 21
7.5
  0
LINE
  8
0
 10
-1
 20
7.5
 11
-0.875
 21
7.5
  0
LINE
  8
0
 10
-0.875
 20
7.5
 11
-0.875
 21
7
  0
LINE
  8
0
 10
-0.875
 20
7
 11
-1
 21
7
  0
LINE
  8
0
 10
-1
 20
7
 11
-1
 21
6.5
  0
LINE
  8
0
 10
-1
 20
6.5
 11
-0.875
 21
6.5
  0
LINE
  8
0
 10
-0.875
 20
6.5
 11
-0.875
 21
6
  0
LINE
  8
0
 10
-0.875
 20
6
 11
-1
 21
6
  0
LINE
  8
0
 10
-1
 20
6
 11
-1
 21
5.5
  0
LINE
  8
0
 10
-1
 20
5.5
 11
-0.875
 21
5.5
  0
LINE
  8
0
 10
-0.875
 20
5.5
 11
-0.875
 21
5
  0
LINE
  8
0
 10
-0.875
 20
5
 11
-1
 21
5
  0
LINE
  8
0
 10
-1
 20
5
 11
-1
 21
4.5
  0
LINE
  8
0
 10
-1
 20
4.5
 11
-0.875
 21
4.5
  0
LINE
  8
0
 10
-0.875
 20
4.5
 11
-0.875
 21
4
  0
LINE
  8
0
 10
-0.875
 20
4
 11
-1
 21
4
  0
LINE
  8
0
 10
-1
 20
4
 11
-1
 21
3.5
  0
LINE
  8
0
 10
-1
 20
3.5
 11
-0.875
 21
3.5
  0
LINE
  8
0
 10
-0.875
 20
3.5
 11
-0.875
 21
3
  0
LINE
  8
0
 10
-0.875
 20
3
 11
-1
 21
3
  0
LINE
  8
0
 10
-1
 20
3
 11
-1
 21
2.5
  0
LINE
  8
0
 10
-1
 20
2.5
 11
-0.875
 21
2.5
  0
LINE
  8
0
 10
-0.875
 20
2.5
 11
-0.875
 21
2
  0
LINE
  8
0
 10
-0.875
 20
2
 11
-1
 21
2
  0
LINE
  8
0
 10
-1
 20
2
 11
-1
 21
1.5
  0
LINE
  8
0
 10
-1
 20
1.5
 11
-0.875
 21
1.5
  0
LINE
  8
0
 10
-0.875
 20
1.5
 11
-0.875
 21
1
  0
LINE
  8
0
 10
-0.875
 20
1
 11
-1
 21
1
  0
LINE
  8
0
 10
-1
 20
1
 11
-1
 21
0.5
  0
LINE
  8
0
 10
-1
 20
0.5
 11
-0.875
 21
0.5
  0
LINE
  8
0
 10
-0.875
 20
0.5
 11
-0.875
 21
0
  0
LINE
  8
0
 10
-0.875
 20
0
 11
0.875
 21
0
  0
LINE
  8
0
 10
0.875
 20
0
 11
0.875
 21
0.5
  0
LINE
  8
0
 10
0.875
 20
0.5
 11
1
 21
0.5
  0
LINE
  8
0
 10
1
 20
0.5
 11
1
 21
1
  0
LINE
  8
0
 10
1
 20
1
 11
0.875
 21
1
  0
LINE
  8
0
 10
0.875
 20
1
 11
0.875
 21
1.5
  0
LINE
  8
0
 10
0.875
 20
1.5
 11
1
 21
1.5
  0
LINE
  8
0
 10
1
 20
1.5
 11
1
 21
2
  0
LINE
  8
0
 10
1
 20
2
 11
0.875
 21
2
  0
LINE
  8
0
 10
0.875
 20
2
 11
0.875
 21
2.5
  0
LINE
  8
0
 10
0.875
 20
2.5
 11
1
 21
2.5
  0
LINE
  8
0
 10
1
 20
2.5
 11
1
 21
3
  0
LINE
  8
0
 10
1
 20
3
 11
0.875
 21
3
  0
LINE
  8
0
 10
0.875
 20
3
 11
0.875
 21
3.5
  0
LINE
  8
0
 10
0.875
 20
3.5
 11
1
 21
3.5
  0
LINE
  8
0
 10
1
 20
3.5
 11
1
 21
4
  0
LINE
  8
0
 10
1
 20
4
 11
0.875
 21
4
  0
LINE
  8
0
 10
0.875
 20
4
 11
0.875
 21
4.5
  0
LINE
  8
0
 10
0.875
 20
4.5
 11
1
 21
4.5
  0
LINE
  8
0
 10
1
 20
4.5
 11
1
 21
5
  0
LINE
  8
0
 10
1
 20
5
 11
0.875
 21
5
  0
LINE
  8
0
 10
0.875
 20
5
 11
0.875
 21
5.5
  0
LINE
  8
0
 10
0.875
 20
5.5
 11
1
 21
5.5
  0
LINE
  8
0
 10
1
 20
5.5
 11
1
 21
6
  0
LINE
  8
0
 10
1
 20
6
 11
0.875
 21
6
  0
LINE
  8
0
 10
0.875
 20
6
 11
0.875
 21
6.5
  0
LINE
  8
0
 10
0.875
 20
6.5
 11
1
 21
6.5
  0
LINE
  8
0
 10
1
 20
6.5
 11
1
 21
7
  0
LINE
  8
0
 10
1
 20
7
 11
0.875
 21
7
  0
LINE
  8
0
 10
0.875
 20
7
 11
0.875
 21
7.5
  0
LINE
  8
0
 10
0.875
 20
7.5
 11
1
 21
7.5
  0
LINE
  8
0
 10
1
 20
7.5
 11
1
 21
8
  0
LINE
  8
0
 10
1
 20
8
 11
0.875
 21
8
  0
LINE
  8
0
 10
0.875
 20
8
 11
0.875
 21
8.5
  0
LINE
  8
0
 10
0.875
 20
8.5
 11
1
 21
8.5
  0
LINE
  8
0
 10
1
 20
8.5
 11
1
 21
9
  0
LINE
  8
0
 10
1
 20
9
 11
0.875
 21
9
  0
LINE
  8
0
 10
0.875
 20
9
 11
0.875
 21
9.5
  0
LINE
  8
0
 10
0.875
 20
9.5
 11
1
 21
9.5
  0
LINE
  8
0
 10
1
 20
9.5
 11
1
 21
10
  0
LINE
  8
0
 10
1
 20
10
 11
0.875
 21
10
  0
LINE
  8
0
 10
0.875
 20
10
 11
0.875
 21
10.5
  0
LINE
  8
0
 10
0.875
 20
10.5
 11
1
 21
10.5
  0
LINE
  8
0
 10
1
 20
10.5
 11
1
 21
11
  0
LINE
  8
0
 10
1
 20
11
 11
0.875
 21
11
  0
LINE
  8
0
 10
0.875
 20
11
 11
0.875
 21
11.5
  0
LINE
  8
0
 10
0.875
 20
11.5
 11
1
 21
11.5
  0
LINE
  8
0
 10
1
 20
11.5
 11
1
 21
12
  0
LINE
  8
0
 10
1
 20
12
 11
0.875
 21
12
  0
LINE
  8
0
 10
0.875
 20
12
 11
0.875
 21
12.5
  0
LINE
  8
0
 10
0.875
 20
12.5
 11
1
 21
12.5
  0
LINE
  8
0
 10
1
 20
12.5
 11
1
 21
13
  0
LINE
  8
0
 10
1
 20
13
 11
0.875
 21
13
  0
LINE
  8
0
 10
0.875
 20
13
 11
0.875
 21
13.5
  0
LINE
  8
0
 10
0.875
 20
13.5
 11
1
 21
13.5
  0
LINE
  8
0
 10
1
 20
13.5
 11
1
 21
14
  0
LINE
  8
0
 10
1
 20
14
 11
0.875
 21
14
  0
LINE
  8
0
 10
0.875
 20
14
 11
0.875
 21
14.5
  0
LINE
  8
0
 10
0.875
 20
14.5
 11
1
 21
14.5
  0
LINE
  8
0
 10
1
 20
14.5
 11
1
 21
15
  0
LINE
  8
0
 10
1
 20
15
 11
0.875
 21
15
  0
LINE
  8
0
 10
0.875
 20
15
 11
0.875
 21
15.5
  0
LINE
  8
0
 10
0.875
 20
15.5
 11
1
 21
15.5
  0
LINE
  8
0
 10
1
 20
15.5
 11
1
 21
16
  0
LINE
  8
0
 10
1
 20
16
 11
0.875
 21
16
  0
LINE
  8
0
 10
0.875
 20
16
 11
0.875
 21
16.5
  0
LINE
  8
0
 10
0.875
 20
16.5
 11
1
 21
16.5
  0
LINE
  8
0
 10
1
 20
16.5
 11
1
 21
17
  0
LINE
  8
0
 10
1
 20
17
 11
0.875
 21
17
  0
LINE
  8
0
 10
0.875
 20
17
 11
0.875
 21
17.5
  0
LINE
  8
0
 10
0.875
 20
17.5
 11
1
 21
17.5
  0
LINE
  8
0
 10
1
 20
17.5
 11
1
 21
18
  0
LINE
  8
0
 10
1
 20
18
 11
0.875
 21
18
  0
LINE
  8
0
 10
0.875
 20
18
 11
0.875
 21
18.5
  0
LINE
  8
0
 10
0.875
 20
18.5
 11
1
 21
18.5
  0
LINE
  8
0
 10
1
 20
18.5
 11
1
 21
19
  0
LINE
  8
0
 10
1
 20
19
 11
0.875
 21
19
  0
LINE
  8
0
 10
0.875
 20
19
 11
0.875
 21
19.5
  0
LINE
  8
0
 10
0.875
 20
19.5
 11
1
 21
19.5
  0
LINE
  8
0
 10
1
 20
19.5
 11
1
 21
20
  0
LINE
  8
0
 10
1
 20
20
 11
-1
 21
20
  0
LINE
  8
0
 10
-1
 20
20
 11
-1
 21
19.5
  0
LINE
  8
0
 10
-1
 20
19.5
 11
-0.875
 21
19.5
  0
LINE
  8
0
 10
-0.875
 20
19.5
 11
-0.875
 21
19
  0
LINE
  8
0
 10
-0.724716
 20
18.276
 11
-0.747009
 21
18.2874
  0
LINE
  8
0
 10
-0.747009
 20
18.2874
 11
-0.764709
 21
18.3051
  0
LINE
  8
0
 10
-0.764709
 20
18.3051
 11
-0.776077
 21
18.3274
  0
LINE
  8
0
 10
-0.776077
 20
18.3274
 11
-0.779984
 21
18.3521
  0
LINE
  8
0
 10
-0.779984
 20
18.3521
 11
-0.779984
 21
19.54
  0
LINE
  8
0
 10
-0.779984
 20
19.54
 11
-0.776077
 21
19.5647
  0
LINE
  8
0
 10
-0.776077
 20
19.5647
 11
-0.764709
 21
19.587
  0
LINE
  8
0
 10
-0.764709
 20
19.587
 11
-0.747009
 21
19.6047
  0
LINE
  8
0
 10
-0.747009
 20
19.6047
 11
-0.724716
 21
19.6161
  0
LINE
  8
0
 10
-0.724716
 20
19.6161
 11
-0.699997
 21
19.62
  0
LINE
  8
0
 10
-0.699997
 20
19.62
 11
0.487869
 21
19.62
  0
LINE
  8
0
 10
0.487869
 20
19.62
 11
0.512589
 21
19.6161
  0
LINE
  8
0
 10
0.512589
 20
19.6161
 11
0.534882
 21
19.6047
  0
LINE
  8
0
 10
0.534882
 20
19.6047
 11
0.552582
 21
19.587
  0
LINE
  8
0
 10
0.552582
 20
19.587
 11
0.56395
 21
19.5647
  0
LINE
  8
0
 10
0.56395
 20
19.5647
 11
0.567856
 21
19.54
  0
LINE
  8
0
 10
0.567856
 20
19.54
 11
0.56395
 21
19.5153
  0
LINE
  8
0
 10
0.56395
 20
19.5153
 11
0.552582
 21
19.493
  0
LINE
  8
0
 10
0.552582
 20
19.493
 11
-0.652985
 21
18.2874
  0
LINE
  8
0
 10
-0.652985
 20
18.2874
 11
-0.675278
 21
18.276
  0
LINE
  8
0
 10
-0.675278
 20
18.276
 11
-0.699997
 21
18.2721
  0
LINE
  8
0
 10
-0.699997
 20
18.2721
 11
-0.724716
 21
18.276
  0
LINE
  8
0
 10
-0.487869
 20
18.06
 11
-0.512589
 21
18.0639
  0
LINE
  8
0
 10
-0.512589
 20
18.0639
 11
-0.534882
 21
18.0753
  0
LINE
  8
0
 10
-0.534882
 20
18.0753
 11
-0.552582
 21
18.093
  0
LINE
  8
0
 10
-0.552582
 20
18.093
 11
-0.56395
 21
18.1153
  0
LINE
  8
0
 10
-0.56395
 20
18.1153
 11
-0.567856
 21
18.14
  0
LINE
  8
0
 10
-0.567856
 20
18.14
 11
-0.56395
 21
18.1647
  0
LINE
  8
0
 10
-0.56395
 20
18.1647
 11
-0.552582
 21
18.187
  0
LINE
  8
0
 10
-0.552582
 20
18.187
 11
0.652985
 21
19.3926
  0
LINE
  8
0
 10
0.652985
 20
19.3926
 11
0.675278
 21
19.4039
  0
LINE
  8
0
 10
0.675278
 20
19.4039
 11
0.699997
 21
19.4079
  0
LINE
  8
0
 10
0.699997
 20
19.4079
 11
0.724716
 21
19.4039
  0
LINE
  8
0
 10
0.724716
 20
19.4039
 11
0.747009
 21
19.3926
  0
LINE
  8
0
 10
0.747009
 20
19.3926
 11
0.764709
 21
19.3749
  0
LINE
  8
0
 10
0.764709
 20
19.3749
 11
0.776077
 21
19.3526
  0
LINE
  8
0
 10
0.776077
 20
19.3526
 11
0.779984
 21
19.3279
  0
LINE
  8
0
 10
0.779984
 20
19.3279
 11
0.779984
 21
18.14
  0
LINE
  8
0
 10
0.779984
 20
18.14
 11
0.776077
 21
18.1153
  0
LINE
  8
0
 10
0.776077
 20
18.1153
 11
0.764709
 21
18.093
  0
LINE
  8
0
 10
0.764709
 20
18.093
 11
0.747009
 21
18.0753
  0
LINE
  8
0
 10
0.747009
 20
18.0753
 11
0.724716
 21
18.0639
  0
LINE
  8
0
 10
0.724716
 20
18.0639
 11
0.699997
 21
18.06
  0
LINE
  8
0
 10
0.699997
 20
18.06
 11
-0.487869
 21
18.06
  0
LINE
  8
0
 10
0.675278
 20
16.496
 11
0.652985
 21
16.5074
  0
LINE
  8
0
 10
0.652985
 20
16.5074
 11
-0.552582
 21
17.713
  0
LINE
  8
0
 10
-0.552582
 20
17.713
 11
-0.56395
 21
17.7353
  0
LINE
  8
0
 10
-0.56395
 20
17.7353
 11
-0.567856
 21
17.76
  0
LINE
  8
0
 10
-0.567856
 20
17.76
 11
-0.56395
 21
17.7847
  0
LINE
  8
0
 10
-0.56395
 20
17.7847
 11
-0.552582
 21
17.807
  0
LINE
  8
0
 10
-0.552582
 20
17.807
 11
-0.534882
 21
17.8247
  0
LINE
  8
0
 10
-0.534882
 20
17.8247
 11
-0.512589
 21
17.8361
  0
LINE
  8
0
 10
-0.512589
 20
17.8361
 11
-0.487869
 21
17.84
  0
LINE
  8
0
 10
-0.487869
 20
17.84
 11
0.699997
 21
17.84
  0
LINE
  8
0
 10
0.699997
 20
17.84
 11
0.724716
 21
17.8361
  0
LINE
  8
0
 10
0.724716
 20
17.8361
 11
0.747009
 21
17.8247
  0
LINE
  8
0
 10
0.747009
 20
17.8247
 11
0.764709
 21
17.807
  0
LINE
  8
0
 10
0.764709
 20
17.807
 11
0.776077
 21
17.7847
  0
LINE
  8
0
 10
0.776077
 20
17.7847
 11
0.779984
 21
17.76
  0
LINE
  8
0
 10
0.779984
 20
17.76
 11
0.779984
 21
16.5721
  0
LINE
  8
0
 10
0.779984
 20
16.5721
 11
0.776077
 21
16.5474
  0
LINE
  8
0
 10
0.776077
 20
16.5474
 11
0.764709
 21
16.5251
  0
LINE
  8
0
 10
0.764709
 20
16.5251
 11
0.747009
 21
16.5074
  0
LINE
  8
0
 10
0.747009
 20
16.5074
 11
0.724716
 21
16.496
  0
LINE
  8
0
 10
0.724716
 20
16.496
 11
0.699997
 21
16.4921
  0
LINE
  8
0
 10
0.699997
 20
16.4921
 11
0.675278
 21
16.496
  0
LINE
  8
0
 10
-0.699997
 20
16.28
 11
-0.724716
 21
16.2839
  0
LINE
  8
0
 10
-0.724716
 20
16.2839
 11
-0.747009
 21
16.2953
  0
LINE
  8
0
 10
-0.747009
 20
16.2953
 11
-0.764709
 21
16.313
  0
LINE
  8
0
 10
-0.764709
 20
16.313
 11
-0.776077
 21
16.3353
  0
LINE
  8
0
 10
-0.776077
 20
16.3353
 11
-0.779984
 21
16.36
  0
LINE
  8
0
 10
-0.779984
 20
16.36
 11
-0.779984
 21
17.5479
  0
LINE
  8
0
 10
-0.779984
 20
17.5479
 11
-0.776077
 21
17.5726
  0
LINE
  8
0
 10
-0.776077
 20
17.5726
 11
-0.764709
 21
17.5949
  0
LINE
  8
0
 10
-0.764709
 20
17.5949
 11
-0.747009
 21
17.6126
  0
LINE
  8
0
 10
-0.747009
 20
17.6126
 11
-0.724716
 21
17.6239
  0
LINE
  8
0
 10
-0.724716
 20
17.6239
 11
-0.699997
 21
17.6279
  0
LINE
  8
0
 10
-0.699997
 20
17.6279
 11
-0.675278
 21
17.6239
  0
LINE
  8
0
 10
-0.675278
 20
17.6239
 11
-0.652985
 21
17.6126
  0
LINE
  8
0
 10
-0.652985
 20
17.6126
 11
0.552582
 21
16.407
  0
LINE
  8
0
 10
0.552582
 20
16.407
 11
0.56395
 21
16.3847
  0
LINE
  8
0
 10
0.56395
 20
16.3847
 11
0.567856
 21
16.36
  0
LINE
  8
0
 10
0.567856
 20
16.36
 11
0.56395
 21
16.3353
  0
LINE
  8
0
 10
0.56395
 20
16.3353
 11
0.552582
 21
16.313
  0
LINE
  8
0
 10
0.552582
 20
16.313
 11
0.534882
 21
16.2953
  0
LINE
  8
0
 10
0.534882
 20
16.2953
 11
0.512589
 21
16.2839
  0
LINE
  8
0
 10
0.512589
 20
16.2839
 11
0.487869
 21
16.28
  0
LINE
  8
0
 10
0.487869
 20
16.28
 11
-0.699997
 21
16.28
  0
LINE
  8
0
 10
-0.724716
 20
14.716
 11
-0.747009
 21
14.7274
  0
LINE
  8
0
 10
-0.747009
 20
14.7274
 11
-0.764709
 21
14.7451
  0
LINE
  8
0
 10
-0.764709
 20
14.7451
 11
-0.776077
 21
14.7674
  0
LINE
  8
0
 10
-0.776077
 20
14.7674
 11
-0.779984
 21
14.7921
  0
LINE
  8
0
 10
-0.779984
 20
14.7921
 11
-0.779984
 21
15.98
  0
LINE
  8
0
 10
-0.779984
 20
15.98
 11
-0.776077
 21
16.0047
  0
LINE
  8
0
 10
-0.776077
 20
16.0047
 11
-0.764709
 21
16.027
  0
LINE
  8
0
 10
-0.764709
 20
16.027
 11
-0.747009
 21
16.0447
  0
LINE
  8
0
 10
-0.747009
 20
16.0447
 11
-0.724716
 21
16.0561
  0
LINE
  8
0
 10
-0.724716
 20
16.0561
 11
-0.699997
 21
16.06
  0
LINE
  8
0
 10
-0.699997
 20
16.06
 11
0.487869
 21
16.06
  0
LINE
  8
0
 10
0.487869
 20
16.06
 11
0.512589
 21
16.0561
  0
LINE
  8
0
 10
0.512589
 20
16.0561
 11
0.534882
 21
16.0447
  0
LINE
  8
0
 10
0.534882
 20
16.0447
 11
0.552582
 21
16.027
  0
LINE
  8
0
 10
0.552582
 20
16.027
 11
0.56395
 21
16.0047
  0
LINE
  8
0
 10
0.56395
 20
16.0047
 11
0.567856
 21
15.98
  0
LINE
  8
0
 10
0.567856
 20
15.98
 11
0.56395
 21
15.9553
  0
LINE
  8
0
 10
0.56395
 20
15.9553
 11
0.552582
 21
15.933
  0
LINE
  8
0
 10
0.552582
 20
15.933
 11
-0.652985
 21
14.7274
  0
LINE
  8
0
 10
-0.652985
 20
14.7274
 11
-0.675278
 21
14.716
  0
LINE
  8
0
 10
-0.675278
 20
14.716
 11
-0.699997
 21
14.7121
  0
LINE
  8
0
 10
-0.699997
 20
14.7121
 11
-0.724716
 21
14.716
  0
LINE
  8
0
 10
-0.487869
 20
14.5
 11
-0.512589
 21
14.5039
  0
LINE
  8
0
 10
-0.512589
 20
14.5039
 11
-0.534882
 21
14.5153
  0
LINE
  8
0
 10
-0.534882
 20
14.5153
 11
-0.552582
 21
14.533
  0
LINE
  8
0
 10
-0.552582
 20
14.533
 11
-0.56395
 21
14.5553
  0
LINE
  8
0
 10
-0.56395
 20
14.5553
 11
-0.567856
 21
14.58
  0
LINE
  8
0
 10
-0.567856
 20
14.58
 11
-0.56395
 21
14.6047
  0
LINE
  8
0
 10
-0.56395
 20
14.6047
 11
-0.552582
 21
14.627
  0
LINE
  8
0
 10
-0.552582
 20
14.627
 11
0.652985
 21
15.8326
  0
LINE
  8
0
 10
0.652985
 20
15.8326
 11
0.675278
 21
15.8439
  0
LINE
  8
0
 10
0.675278
 20
15.8439
 11
0.699997
 21
15.8479
  0
LINE
  8
0
 10
0.699997
 20
15.8479
 11
0.724716
 21
15.8439
  0
LINE
  8
0
 10
0.724716
 20
15.8439
 11
0.747009
 21
15.8326
  0
LINE
  8
0
 10
0.747009
 20
15.8326
 11
0.764709
 21
15.8149
  0
LINE
  8
0
 10
0.764709
 20
15.8149
 11
0.776077
 21
15.7926
  0
LINE
  8
0
 10
0.776077
 20
15.7926
 11
0.779984
 21
15.7679
  0
LINE
  8
0
 10
0.779984
 20
15.7679
 11
0.779984
 21
14.58
  0
LINE
  8
0
 10
0.779984
 20
14.58
 11
0.776077
 21
14.5553
  0
LINE
  8
0
 10
0.776077
 20
14.5553
 11
0.764709
 21
14.533
  0
LINE
  8
0
 10
0.764709
 20
14.533
 11
0.747009
 21
14.5153
  0
LINE
  8
0
 10
0.747009
 20
14.5153
 11
0.724716
 21
14.5039
  0
LINE
  8
0
 10
0.724716
 20
14.5039
 11
0.699997
 21
14.5
  0
LINE
  8
0
 10
0.699997
 20
14.5
 11
-0.487869
 21
14.5
  0
LINE
  8
0
 10
0.675278
 20
12.9361
 11
0.652985
 21
12.9474
  0
LINE
  8
0
 10
0.652985
 20
12.9474
 11
-0.552582
 21
14.153
  0
LINE
  8
0
 10
-0.552582
 20
14.153
 11
-0.56395
 21
14.1753
  0
LINE
  8
0
 10
-0.56395
 20
14.1753
 11
-0.567856
 21
14.2
  0
LINE
  8
0
 10
-0.567856
 20
14.2
 11
-0.56395
 21
14.2247
  0
LINE
  8
0
 10
-0.56395
 20
14.2247
 11
-0.552582
 21
14.247
  0
LINE
  8
0
 10
-0.552582
 20
14.247
 11
-0.534882
 21
14.2647
  0
LINE
  8
0
 10
-0.534882
 20
14.2647
 11
-0.512589
 21
14.2761
  0
LINE
  8
0
 10
-0.512589
 20
14.2761
 11
-0.487869
 21
14.28
  0
LINE
  8
0
 10
-0.487869
 20
14.28
 11
0.699997
 21
14.28
  0
LINE
  8
0
 10
0.699997
 20
14.28
 11
0.724716
 21
14.2761
  0
LINE
  8
0
 10
0.724716
 20
14.2761
 11
0.747009
 21
14.2647
  0
LINE
  8
0
 10
0.747009
 20
14.2647
 11
0.764709
 21
14.247
  0
LINE
  8
0
 10
0.764709
 20
14.247
 11
0.776077
 21
14.2247
  0
LINE
  8
0
 10
0.776077
 20
14.2247
 11
0.779984
 21
14.2
  0
LINE
  8
0
 10
0.779984
 20
14.2
 11
0.779984
 21
13.0121
  0
LINE
  8
0
 10
0.779984
 20
13.0121
 11
0.776077
 21
12.9874
  0
LINE
  8
0
 10
0.776077
 20
12.9874
 11
0.764709
 21
12.9651
  0
LINE
  8
0
 10
0.764709
 20
12.9651
 11
0.747009
 21
12.9474
  0
LINE
  8
0
 10
0.747009
 20
12.9474
 11
0.724716
 21
12.9361
  0
LINE
  8
0
 10
0.724716
 20
12.9361
 11
0.699997
 21
12.9321
  0
LINE
  8
0
 10
0.699997
 20
12.9321
 11
0.675278
 21
12.9361
  0
LINE
  8
0
 10
-0.699997
 20
12.72
 11
-0.724716
 21
12.7239
  0
LINE
  8
0
 10
-0.724716
 20
12.7239
 11
-0.747009
 21
12.7353
  0
LINE
  8
0
 10
-0.747009
 20
12.7353
 11
-0.764709
 21
12.753
  0
LINE
  8
0
 10
-0.764709
 20
12.753
 11
-0.776077
 21
12.7753
  0
LINE
  8
0
 10
-0.776077
 20
12.7753
 11
-0.779984
 21
12.8
  0
LINE
  8
0
 10
-0.779984
 20
12.8
 11
-0.779984
 21
13.9879
  0
LINE
  8
0
 10
-0.779984
 20
13.9879
 11
-0.776077
 21
14.0126
  0
LINE
  8
0
 10
-0.776077
 20
14.0126
 11
-0.764709
 21
14.0349
  0
LINE
  8
0
 10
-0.764709
 20
14.0349
 11
-0.747009
 21
14.0526
  0
LINE
  8
0
 10
-0.747009
 20
14.0526
 11
-0.724716
 21
14.0639
  0
LINE
  8
0
 10
-0.724716
 20
14.0639
 11
-0.699997
 21
14.0679
  0
LINE
  8
0
 10
-0.699997
 20
14.0679
 11
-0.675278
 21
14.0639
  0
LINE
  8
0
 10
-0.675278
 20
14.0639
 11
-0.652985
 21
14.0526
  0
LINE
  8
0
 10
-0.652985
 20
14.0526
 11
0.552582
 21
12.847
  0
LINE
  8
0
 10
0.552582
 20
12.847
 11
0.56395
 21
12.8247
  0
LINE
  8
0
 10
0.56395
 20
12.8247
 11
0.567856
 21
12.8
  0
LINE
  8
0
 10
0.567856
 20
12.8
 11
0.56395
 21
12.7753
  0
LINE
  8
0
 10
0.56395
 20
12.7753
 11
0.552582
 21
12.753
  0
LINE
  8
0
 10
0.552582
 20
12.753
 11
0.534882
 21
12.7353
  0
LINE
  8
0
 10
0.534882
 20
12.7353
 11
0.512589
 21
12.7239
  0
LINE
  8
0
 10
0.512589
 20
12.7239
 11
0.487869
 21
12.72
  0
LINE
  8
0
 10
0.487869
 20
12.72
 11
-0.699997
 21
12.72
  0
LINE
  8
0
 10
-0.724716
 20
11.156
 11
-0.747009
 21
11.1674
  0
LINE
  8
0
 10
-0.747009
 20
11.1674
 11
-0.764709
 21
11.1851
  0
LINE
  8
0
 10
-0.764709
 20
11.1851
 11
-0.776077
 21
11.2074
  0
LINE
  8
0
 10
-0.776077
 20
11.2074
 11
-0.779984
 21
11.2321
  0
LINE
  8
0
 10
-0.779984
 20
11.2321
 11
-0.779984
 21
12.42
  0
LINE
  8
0
 10
-0.779984
 20
12.42
 11
-0.776077
 21
12.4447
  0
LINE
  8
0
 10
-0.776077
 20
12.4447
 11
-0.764709
 21
12.467
  0
LINE
  8
0
 10
-0.764709
 20
12.467
 11
-0.747009
 21
12.4847
  0
LINE
  8
0
 10
-0.747009
 20
12.4847
 11
-0.724716
 21
12.4961
  0
LINE
  8
0
 10
-0.724716
 20
12.4961
 11
-0.699997
 21
12.5
  0
LINE
  8
0
 10
-0.699997
 20
12.5
 11
0.487869
 21
12.5
  0
LINE
  8
0
 10
0.487869
 20
12.5
 11
0.512589
 21
12.4961
  0
LINE
  8
0
 10
0.512589
 20
12.4961
 11
0.534882
 21
12.4847
  0
LINE
  8
0
 10
0.534882
 20
12.4847
 11
0.552582
 21
12.467
  0
LINE
  8
0
 10
0.552582
 20
12.467
 11
0.56395
 21
12.4447
  0
LINE
  8
0
 10
0.56395
 20
12.4447
 11
0.567856
 21
12.42
  0
LINE
  8
0
 10
0.567856
 20
12.42
 11
0.56395
 21
12.3953
  0
LINE
  8
0
 10
0.56395
 20
12.3953
 11
0.552582
 21
12.373
  0
LINE
  8
0
 10
0.552582
 20
12.373
 11
-0.652985
 21
11.1674
  0
LINE
  8
0
 10
-0.652985
 20
11.1674
 11
-0.675278
 21
11.156
  0
LINE
  8
0
 10
-0.675278
 20
11.156
 11
-0.699997
 21
11.1521
  0
LINE
  8
0
 10
-0.699997
 20
11.1521
 11
-0.724716
 21
11.156
  0
LINE
  8
0
 10
-0.487869
 20
10.94
 11
-0.512589
 21
10.9439
  0
LINE
  8
0
 10
-0.512589
 20
10.9439
 11
-0.534882
 21
10.9553
  0
LINE
  8
0
 10
-0.534882
 20
10.9553
 11
-0.552582
 21
10.973
  0
LINE
  8
0
 10
-0.552582
 20
10.973
 11
-0.56395
 21
10.9953
  0
LINE
  8
0
 10
-0.56395
 20
10.9953
 11
-0.567856
 21
11.02
  0
LINE
  8
0
 10
-0.567856
 20
11.02
 11
-0.56395
 21
11.0447
  0
LINE
  8
0
 10
-0.56395
 20
11.0447
 11
-0.552582
 21
11.067
  0
LINE
  8
0
 10
-0.552582
 20
11.067
 11
0.652985
 21
12.2726
  0
LINE
  8
0
 10
0.652985
 20
12.2726
 11
0.675278
 21
12.2839
  0
LINE
  8
0
 10
0.675278
 20
12.2839
 11
0.699997
 21
12.2878
  0
LINE
  8
0
 10
0.699997
 20
12.2878
 11
0.724716
 21
12.2839
  0
LINE
  8
0
 10
0.724716
 20
12.2839
 11
0.747009
 21
12.2726
  0
LINE
  8
0
 10
0.747009
 20
12.2726
 11
0.764709
 21
12.2549
  0
LINE
  8
0
 10
0.764709
 20
12.2549
 11
0.776077
 21
12.2326
  0
LINE
  8
0
 10
0.776077
 20
12.2326
 11
0.779984
 21
12.2079
  0
LINE
  8
0
 10
0.779984
 20
12.2079
 11
0.779984
 21
11.02
  0
LINE
  8
0
 10
0.779984
 20
11.02
 11
0.776077
 21
10.9953
  0
LINE
  8
0
 10
0.776077
 20
10.9953
 11
0.764709
 21
10.973
  0
LINE
  8
0
 10
0.764709
 20
10.973
 11
0.747009
 21
10.9553
  0
LINE
  8
0
 10
0.747009
 20
10.9553
 11
0.724716
 21
10.9439
  0
LINE
  8
0
 10
0.724716
 20
10.9439
 11
0.699997
 21
10.94
  0
LINE
  8
0
 10
0.699997
 20
10.94
 11
-0.487869
 21
10.94
  0
LINE
  8
0
 10
0.675278
 20
9.37604
 11
0.652985
 21
9.38741
  0
LINE
  8
0
 10
0.652985
 20
9.38741
 11
-0.552582
 21
10.593
  0
LINE
  8
0
 10
-0.552582
 20
10.593
 11
-0.56395
 21
10.6153
  0
LINE
  8
0
 10
-0.56395
 20
10.6153
 11
-0.567856
 21
10.64
  0
LINE
  8
0
 10
-0.567856
 20
10.64
 11
-0.56395
 21
10.6647
  0
LINE
  8
0
 10
-0.56395
 20
10.6647
 11
-0.552582
 21
10.687
  0
LINE
  8
0
 10
-0.552582
 20
10.687
 11
-0.534882
 21
10.7047
  0
LINE
  8
0
 10
-0.534882
 20
10.7047
 11
-0.512589
 21
10.7161
  0
LINE
  8
0
 10
-0.512589
 20
10.7161
 11
-0.487869
 21
10.72
  0
LINE
  8
0
 10
-0.487869
 20
10.72
 11
0.699997
 21
10.72
  0
LINE
  8
0
 10
0.699997
 20
10.72
 11
0.724716
 21
10.7161
  0
LINE
  8
0
 10
0.724716
 20
10.7161
 11
0.747009
 21
10.7047
  0
LINE
  8
0
 10
0.747009
 20
10.7047
 11
0.764709
 21
10.687
  0
LINE
  8
0
 10
0.764709
 20
10.687
 11
0.776077
 21
10.6647
  0
LINE
  8
0
 10
0.776077
 20
10.6647
 11
0.779984
 21
10.64
  0
LINE
  8
0
 10
0.779984
 20
10.64
 11
0.779984
 21
9.45212
  0
LINE
  8
0
 10
0.779984
 20
9.45212
 11
0.776077
 21
9.4274
  0
LINE
  8
0
 10
0.776077
 20
9.4274
 11
0.764709
 21
9.40511
  0
LINE
  8
0
 10
0.764709
 20
9.40511
 11
0.747009
 21
9.38741
  0
LINE
  8
0
 10
0.747009
 20
9.38741
 11
0.724716
 21
9.37604
  0
LINE
  8
0
 10
0.724716
 20
9.37604
 11
0.699997
 21
9.37213
  0
LINE
  8
0
 10
0.699997
 20
9.37213
 11
0.675278
 21
9.37604
  0
LINE
  8
0
 10
-0.699997
 20
9.16
 11
-0.724716
 21
9.16391
  0
LINE
  8
0
 10
-0.724716
 20
9.16391
 11
-0.747009
 21
9.17528
  0
LINE
  8
0
 10
-0.747009
 20
9.17528
 11
-0.764709
 21
9.19298
  0
LINE
  8
0
 10
-0.764709
 20
9.19298
 11
-0.776077
 21
9.21527
  0
LINE
  8
0
 10
-0.776077
 20
9.21527
 11
-0.779984
 21
9.23999
  0
LINE
  8
0
 10
-0.779984
 20
9.23999
 11
-0.779984
 21
10.4279
  0
LINE
  8
0
 10
-0.779984
 20
10.4279
 11
-0.776077
 21
10.4526
  0
LINE
  8
0
 10
-0.776077
 20
10.4526
 11
-0.764709
 21
10.4749
  0
LINE
  8
0
 10
-0.764709
 20
10.4749
 11
-0.747009
 21
10.4926
  0
LINE
  8
0
 10
-0.747009
 20
10.4926
 11
-0.724716
 21
10.5039
  0
LINE
  8
0
 10
-0.724716
 20
10.5039
 11
-0.699997
 21
10.5078
  0
LINE
  8
0
 10
-0.699997
 20
10.5078
 11
-0.675278
 21
10.5039
  0
LINE
  8
0
 10
-0.675278
 20
10.5039
 11
-0.652985
 21
10.4926
  0
LINE
  8
0
 10
-0.652985
 20
10.4926
 11
0.552582
 21
9.287
  0
LINE
  8
0
 10
0.552582
 20
9.287
 11
0.56395
 21
9.26471
  0
LINE
  8
0
 10
0.56395
 20
9.26471
 11
0.567856
 21
9.23999
  0
LINE
  8
0
 10
0.567856
 20
9.23999
 11
0.56395
 21
9.21527
  0
LINE
  8
0
 10
0.56395
 20
9.21527
 11
0.552582
 21
9.19298
  0
LINE
  8
0
 10
0.552582
 20
9.19298
 11
0.534882
 21
9.17528
  0
LINE
  8
0
 10
0.534882
 20
9.17528
 11
0.512589
 21
9.16391
  0
LINE
  8
0
 10
0.512589
 20
9.16391
 11
0.487869
 21
9.16
  0
LINE
  8
0
 10
0.487869
 20
9.16
 11
-0.699997
 21
9.16
  0
LINE
  8
0
 10
-0.724716
 20
7.59604
 11
-0.747009
 21
7.60741
  0
LINE
  8
0
 10
-0.747009
 20
7.60741
 11
-0.764709
 21
7.62511
  0
LINE
  8
0
 10
-0.764709
 20
7.62511
 11
-0.776077
 21
7.6474
  0
LINE
  8
0
 10
-0.776077
 20
7.6474
 11
-0.779984
 21
7.67212
  0
LINE
  8
0
 10
-0.779984
 20
7.67212
 11
-0.779984
 21
8.85999
  0
LINE
  8
0
 10
-0.779984
 20
8.85999
 11
-0.776077
 21
8.8847
  0
LINE
  8
0
 10
-0.776077
 20
8.8847
 11
-0.764709
 21
8.907
  0
LINE
  8
0
 10
-0.764709
 20
8.907
 11
-0.747009
 21
8.9247
  0
LINE
  8
0
 10
-0.747009
 20
8.9247
 11
-0.724716
 21
8.93607
  0
LINE
  8
0
 10
-0.724716
 20
8.93607
 11
-0.699997
 21
8.93997
  0
LINE
  8
0
 10
-0.699997
 20
8.93997
 11
0.487869
 21
8.93997
  0
LINE
  8
0
 10
0.487869
 20
8.93997
 11
0.512589
 21
8.93607
  0
LINE
  8
0
 10
0.512589
 20
8.93607
 11
0.534882
 21
8.9247
  0
LINE
  8
0
 10
0.534882
 20
8.9247
 11
0.552582
 21
8.907
  0
LINE
  8
0
 10
0.552582
 20
8.907
 11
0.56395
 21
8.8847
  0
LINE
  8
0
 10
0.56395
 20
8.8847
 11
0.567856
 21
8.85999
  0
LINE
  8
0
 10
0.567856
 20
8.85999
 11
0.56395
 21
8.83527
  0
LINE
  8
0
 10
0.56395
 20
8.83527
 11
0.552582
 21
8.81297
  0
LINE
  8
0
 10
0.552582
 20
8.81297
 11
-0.652985
 21
7.60741
  0
LINE
  8
0
 10
-0.652985
 20
7.60741
 11
-0.675278
 21
7.59604
  0
LINE
  8
0
 10
-0.675278
 20
7.59604
 11
-0.699997
 21
7.59213
  0
LINE
  8
0
 10
-0.699997
 20
7.59213
 11
-0.724716
 21
7.59604
  0
LINE
  8
0
 10
-0.487869
 20
7.38
 11
-0.512589
 21
7.38391
  0
LINE
  8
0
 10
-0.512589
 20
7.38391
 11
-0.534882
 21
7.39528
  0
LINE
  8
0
 10
-0.534882
 20
7.39528
 11
-0.552582
 21
7.41298
  0
LINE
  8
0
 10
-0.552582
 20
7.41298
 11
-0.56395
 21
7.43527
  0
LINE
  8
0
 10
-0.56395
 20
7.43527
 11
-0.567856
 21
7.45999
  0
LINE
  8
0
 10
-0.567856
 20
7.45999
 11
-0.56395
 21
7.48471
  0
LINE
  8
0
 10
-0.56395
 20
7.48471
 11
-0.552582
 21
7.507
  0
LINE
  8
0
 10
-0.552582
 20
7.507
 11
0.652985
 21
8.71257
  0
LINE
  8
0
 10
0.652985
 20
8.71257
 11
0.675278
 21
8.72394
  0
LINE
  8
0
 10
0.675278
 20
8.72394
 11
0.699997
 21
8.72784
  0
LINE
  8
0
 10
0.699997
 20
8.72784
 11
0.724716
 21
8.72394
  0
LINE
  8
0
 10
0.724716
 20
8.72394
 11
0.747009
 21
8.71257
  0
LINE
  8
0
 10
0.747009
 20
8.71257
 11
0.764709
 21
8.69487
  0
LINE
  8
0
 10
0.764709
 20
8.69487
 11
0.776077
 21
8.67258
  0
LINE
  8
0
 10
0.776077
 20
8.67258
 11
0.779984
 21
8.64786
  0
LINE
  8
0
 10
0.779984
 20
8.64786
 11
0.779984
 21
7.45999
  0
LINE
  8
0
 10
0.779984
 20
7.45999
 11
0.776077
 21
7.43527
  0
LINE
  8
0
 10
0.776077
 20
7.43527
 11
0.764709
 21
7.41298
  0
LINE
  8
0
 10
0.764709
 20
7.41298
 11
0.747009
 21
7.39528
  0
LINE
  8
0
 10
0.747009
 20
7.39528
 11
0.724716
 21
7.38391
  0
LINE
  8
0
 10
0.724716
 20
7.38391
 11
0.699997
 21
7.38
  0
LINE
  8
0
 10
0.699997
 20
7.38
 11
-0.487869
 21
7.38
  0
LINE
  8
0
 10
0.675278
 20
5.81604
 11
0.652985
 21
5.82741
  0
LINE
  8
0
 10
0.652985
 20
5.82741
 11
-0.552582
 21
7.03297
  0
LINE
  8
0
 10
-0.552582
 20
7.03297
 11
-0.56395
 21
7.05527
  0
LINE
  8
0
 10
-0.56395
 20
7.05527
 11
-0.567856
 21
7.07999
  0
LINE
  8
0
 10
-0.567856
 20
7.07999
 11
-0.56395
 21
7.10471
  0
LINE
  8
0
 10
-0.56395
 20
7.10471
 11
-0.552582
 21
7.127
  0
LINE
  8
0
 10
-0.552582
 20
7.127
 11
-0.534882
 21
7.1447
  0
LINE
  8
0
 10
-0.534882
 20
7.1447
 11
-0.512589
 21
7.15607
  0
LINE
  8
0
 10
-0.512589
 20
7.15607
 11
-0.487869
 21
7.15997
  0
LINE
  8
0
 10
-0.487869
 20
7.15997
 11
0.699997
 21
7.15997
  0
LINE
  8
0
 10
0.699997
 20
7.15997
 11
0.724716
 21
7.15607
  0
LINE
  8
0
 10
0.724716
 20
7.15607
 11
0.747009
 21
7.1447
  0
LINE
  8
0
 10
0.747009
 20
7.1447
 11
0.764709
 21
7.127
  0
LINE
  8
0
 10
0.764709
 20
7.127
 11
0.776077
 21
7.10471
  0
LINE
  8
0
 10
0.776077
 20
7.10471
 11
0.779984
 21
7.07999
  0
LINE
  8
0
 10
0.779984
 20
7.07999
 11
0.779984
 21
5.89212
  0
LINE
  8
0
 10
0.779984
 20
5.89212
 11
0.776077
 21
5.8674
  0
LINE
  8
0
 10
0.776077
 20
5.8674
 11
0.764709
 21
5.84511
  0
LINE
  8
0
 10
0.764709
 20
5.84511
 11
0.747009
 21
5.82741
  0
LINE
  8
0
 10
0.747009
 20
5.82741
 11
0.724716
 21
5.81604
  0
LINE
  8
0
 10
0.724716
 20
5.81604
 11
0.699997
 21
5.81213
  0
LINE
  8
0
 10
0.699997
 20
5.81213
 11
0.675278
 21
5.81604
  0
LINE
  8
0
 10
-0.699997
 20
5.60001
 11
-0.724716
 21
5.60391
  0
LINE
  8
0
 10
-0.724716
 20
5.60391
 11
-0.747009
 21
5.61528
  0
LINE
  8
0
 10
-0.747009
 20
5.61528
 11
-0.764709
 21
5.63298
  0
LINE
  8
0
 10
-0.764709
 20
5.63298
 11
-0.776077
 21
5.65527
  0
LINE
  8
0
 10
-0.776077
 20
5.65527
 11
-0.779984
 21
5.67999
  0
LINE
  8
0
 10
-0.779984
 20
5.67999
 11
-0.779984
 21
6.86786
  0
LINE
  8
0
 10
-0.779984
 20
6.86786
 11
-0.776077
 21
6.89258
  0
LINE
  8
0
 10
-0.776077
 20
6.89258
 11
-0.764709
 21
6.91487
  0
LINE
  8
0
 10
-0.764709
 20
6.91487
 11
-0.747009
 21
6.93257
  0
LINE
  8
0
 10
-0.747009
 20
6.93257
 11
-0.724716
 21
6.94394
  0
LINE
  8
0
 10
-0.724716
 20
6.94394
 11
-0.699997
 21
6.94785
  0
LINE
  8
0
 10
-0.699997
 20
6.94785
 11
-0.675278
 21
6.94394
  0
LINE
  8
0
 10
-0.675278
 20
6.94394
 11
-0.652985
 21
6.93257
  0
LINE
  8
0
 10
-0.652985
 20
6.93257
 11
0.552582
 21
5.72701
  0
LINE
  8
0
 10
0.552582
 20
5.72701
 11
0.56395
 21
5.70471
  0
LINE
  8
0
 10
0.56395
 20
5.70471
 11
0.567856
 21
5.67999
  0
LINE
  8
0
 10
0.567856
 20
5.67999
 11
0.56395
 21
5.65527
  0
LINE
  8
0
 10
0.56395
 20
5.65527
 11
0.552582
 21
5.63298
  0
LINE
  8
0
 10
0.552582
 20
5.63298
 11
0.534882
 21
5.61528
  0
LINE
  8
0
 10
0.534882
 20
5.61528
 11
0.512589
 21
5.60391
  0
LINE
  8
0
 10
0.512589
 20
5.60391
 11
0.487869
 21
5.60001
  0
LINE
  8
0
 10
0.487869
 20
5.60001
 11
-0.699997
 21
5.60001
  0
LINE
  8
0
 10
-0.724716
 20
4.03604
 11
-0.747009
 21
4.04741
  0
LINE
  8
0
 10
-0.747009
 20
4.04741
 11
-0.764709
 21
4.06511
  0
LINE
  8
0
 10
-0.764709
 20
4.06511
 11
-0.776077
 21
4.0874
  0
LINE
  8
0
 10
-0.776077
 20
4.0874
 11
-0.779984
 21
4.11212
  0
LINE
  8
0
 10
-0.779984
 20
4.11212
 11
-0.779984
 21
5.29999
  0
LINE
  8
0
 10
-0.779984
 20
5.29999
 11
-0.776077
 21
5.32471
  0
LINE
  8
0
 10
-0.776077
 20
5.32471
 11
-0.764709
 21
5.347
  0
LINE
  8
0
 10
-0.764709
 20
5.347
 11
-0.747009
 21
5.3647
  0
LINE
  8
0
 10
-0.747009
 20
5.3647
 11
-0.724716
 21
5.37607
  0
LINE
  8
0
 10
-0.724716
 20
5.37607
 11
-0.699997
 21
5.37997
  0
LINE
  8
0
 10
-0.699997
 20
5.37997
 11
0.487869
 21
5.37997
  0
LINE
  8
0
 10
0.487869
 20
5.37997
 11
0.512589
 21
5.37607
  0
LINE
  8
0
 10
0.512589
 20
5.37607
 11
0.534882
 21
5.3647
  0
LINE
  8
0
 10
0.534882
 20
5.3647
 11
0.552582
 21
5.347
  0
LINE
  8
0
 10
0.552582
 20
5.347
 11
0.56395
 21
5.32471
  0
LINE
  8
0
 10
0.56395
 20
5.32471
 11
0.567856
 21
5.29999
  0
LINE
  8
0
 10
0.567856
 20
5.29999
 11
0.56395
 21
5.27527
  0
LINE
  8
0
 10
0.56395
 20
5.27527
 11
0.552582
 21
5.25298
  0
LINE
  8
0
 10
0.552582
 20
5.25298
 11
-0.652985
 21
4.04741
  0
LINE
  8
0
 10
-0.652985
 20
4.04741
 11
-0.675278
 21
4.03604
  0
LINE
  8
0
 10
-0.675278
 20
4.03604
 11
-0.699997
 21
4.03214
  0
LINE
  8
0
 10
-0.699997
 20
4.03214
 11
-0.724716
 21
4.03604
  0
LINE
  8
0
 10
-0.487869
 20
3.82001
 11
-0.512589
 21
3.82391
  0
LINE
  8
0
 10
-0.512589
 20
3.82391
 11
-0.534882
 21
3.83528
  0
LINE
  8
0
 10
-0.534882
 20
3.83528
 11
-0.552582
 21
3.85298
  0
LINE
  8
0
 10
-0.552582
 20
3.85298
 11
-0.56395
 21
3.87527
  0
LINE
  8
0
 10
-0.56395
 20
3.87527
 11
-0.567856
 21
3.89999
  0
LINE
  8
0
 10
-0.567856
 20
3.89999
 11
-0.56395
 21
3.92471
  0
LINE
  8
0
 10
-0.56395
 20
3.92471
 11
-0.552582
 21
3.94701
  0
LINE
  8
0
 10
-0.552582
 20
3.94701
 11
0.652985
 21
5.15257
  0
LINE
  8
0
 10
0.652985
 20
5.15257
 11
0.675278
 21
5.16394
  0
LINE
  8
0
 10
0.675278
 20
5.16394
 11
0.699997
 21
5.16785
  0
LINE
  8
0
 10
0.699997
 20
5.16785
 11
0.724716
 21
5.16394
  0
LINE
  8
0
 10
0.724716
 20
5.16394
 11
0.747009
 21
5.15257
  0
LINE
  8
0
 10
0.747009
 20
5.15257
 11
0.764709
 21
5.13487
  0
LINE
  8
0
 10
0.764709
 20
5.13487
 11
0.776077
 21
5.11258
  0
LINE
  8
0
 10
0.776077
 20
5.11258
 11
0.779984
 21
5.08786
  0
LINE
  8
0
 10
0.779984
 20
5.08786
 11
0.779984
 21
3.89999
  0
LINE
  8
0
 10
0.779984
 20
3.89999
 11
0.776077
 21
3.87527
  0
LINE
  8
0
 10
0.776077
 20
3.87527
 11
0.764709
 21
3.85298
  0
LINE
  8
0
 10
0.764709
 20
3.85298
 11
0.747009
 21
3.83528
  0
LINE
  8
0
 10
0.747009
 20
3.83528
 11
0.724716
 21
3.82391
  0
LINE
  8
0
 10
0.724716
 20
3.82391
 11
0.699997
 21
3.82001
  0
LINE
  8
0
 10
0.699997
 20
3.82001
 11
-0.487869
 21
3.82001
  0
LINE
  8
0
 10
0.675278
 20
2.25604
 11
0.652985
 21
2.26741
  0
LINE
  8
0
 10
0.652985
 20
2.26741
 11
-0.552582
 21
3.47298
  0
LINE
  8
0
 10
-0.552582
 20
3.47298
 11
-0.56395
 21
3.49527
  0
LINE
  8
0
 10
-0.56395
 20
3.49527
 11
-0.567856
 21
3.51999
  0
LINE
  8
0
 10
-0.567856
 20
3.51999
 11
-0.56395
 21
3.54471
  0
LINE
  8
0
 10
-0.56395
 20
3.54471
 11
-0.552582
 21
3.567
  0
LINE
  8
0
 10
-0.552582
 20
3.567
 11
-0.534882
 21
3.5847
  0
LINE
  8
0
 10
-0.534882
 20
3.5847
 11
-0.512589
 21
3.59607
  0
LINE
  8
0
 10
-0.512589
 20
3.59607
 11
-0.487869
 21
3.59998
  0
LINE
  8
0
 10
-0.487869
 20
3.59998
 11
0.699997
 21
3.59998
  0
LINE
  8
0
 10
0.699997
 20
3.59998
 11
0.724716
 21
3.59607
  0
LINE
  8
0
 10
0.724716
 20
3.59607
 11
0.747009
 21
3.5847
  0
LINE
  8
0
 10
0.747009
 20
3.5847
 11
0.764709
 21
3.567
  0
LINE
  8
0
 10
0.764709
 20
3.567
 11
0.776077
 21
3.54471
  0
LINE
  8
0
 10
0.776077
 20
3.54471
 11
0.779984
 21
3.51999
  0
LINE
  8
0
 10
0.779984
 20
3.51999
 11
0.779984
 21
2.33212
  0
LINE
  8
0
 10
0.779984
 20
2.33212
 11
0.776077
 21
2.3074
  0
LINE
  8
0
 10
0.776077
 20
2.3074
 11
0.764709
 21
2.28511
  0
LINE
  8
0
 10
0.764709
 20
2.28511
 11
0.747009
 21
2.26741
  0
LINE
  8
0
 10
0.747009
 20
2.26741
 11
0.724716
 21
2.25604
  0
LINE
  8
0
 10
0.724716
 20
2.25604
 11
0.699997
 21
2.25214
  0
LINE
  8
0
 10
0.699997
 20
2.25214
 11
0.675278
 21
2.25604
  0
LINE
  8
0
 10
-0.699997
 20
2.04001
 11
-0.724716
 21
2.04391
  0
LINE
  8
0
 10
-0.724716
 20
2.04391
 11
-0.747009
 21
2.05528
  0
LINE
  8
0
 10
-0.747009
 20
2.05528
 11
-0.764709
 21
2.07298
  0
LINE
  8
0
 10
-0.764709
 20
2.07298
 11
-0.776077
 21
2.09528
  0
LINE
  8
0
 10
-0.776077
 20
2.09528
 11
-0.779984
 21
2.12
  0
LINE
  8
0
 10
-0.779984
 20
2.12
 11
-0.779984
 21
3.30786
  0
LINE
  8
0
 10
-0.779984
 20
3.30786
 11
-0.776077
 21
3.33258
  0
LINE
  8
0
 10
-0.776077
 20
3.33258
 11
-0.764709
 21
3.35487
  0
LINE
  8
0
 10
-0.764709
 20
3.35487
 11
-0.747009
 21
3.37257
  0
LINE
  8
0
 10
-0.747009
 20
3.37257
 11
-0.724716
 21
3.38394
  0
LINE
  8
0
 10
-0.724716
 20
3.38394
 11
-0.699997
 21
3.38785
  0
LINE
  8
0
 10
-0.699997
 20
3.38785
 11
-0.675278
 21
3.38394
  0
LINE
  8
0
 10
-0.675278
 20
3.38394
 11
-0.652985
 21
3.37257
  0
LINE
  8
0
 10
-0.652985
 20
3.37257
 11
0.552582
 21
2.16701
  0
LINE
  8
0
 10
0.552582
 20
2.16701
 11
0.56395
 21
2.14471
  0
LINE
  8
0
 10
0.56395
 20
2.14471
 11
0.567856
 21
2.12
  0
LINE
  8
0
 10
0.567856
 20
2.12
 11
0.56395
 21
2.09528
  0
LINE
  8
0
 10
0.56395
 20
2.09528
 11
0.552582
 21
2.07298
  0
LINE
  8
0
 10
0.552582
 20
2.07298
 11
0.534882
 21
2.05528
  0
LINE
  8
0
 10
0.534882
 20
2.05528
 11
0.512589
 21
2.04391
  0
LINE
  8
0
 10
0.512589
 20
2.04391
 11
0.487869
 21
2.04001
  0
LINE
  8
0
 10
0.487869
 20
2.04001
 11
-0.699997
 21
2.04001
  0
LINE
  8
0
 10
-0.724716
 20
0.476044
 11
-0.747009
 21
0.487411
  0
LINE
  8
0
 10
-0.747009
 20
0.487411
 11
-0.764709
 21
0.505112
  0
LINE
  8
0
 10
-0.764709
 20
0.505112
 11
-0.776077
 21
0.527405
  0
LINE
  8
0
 10
-0.776077
 20
0.527405
 11
-0.779984
 21
0.552124
  0
LINE
  8
0
 10
-0.779984
 20
0.552124
 11
-0.779984
 21
1.73999
  0
LINE
  8
0
 10
-0.779984
 20
1.73999
 11
-0.776077
 21
1.76471
  0
LINE
  8
0
 10
-0.776077
 20
1.76471
 11
-0.764709
 21
1.787
  0
LINE
  8
0
 10
-0.764709
 20
1.787
 11
-0.747009
 21
1.8047
  0
LINE
  8
0
 10
-0.747009
 20
1.8047
 11
-0.724716
 21
1.81607
  0
LINE
  8
0
 10
-0.724716
 20
1.81607
 11
-0.699997
 21
1.81998
  0
LINE
  8
0
 10
-0.699997
 20
1.81998
 11
0.487869
 21
1.81998
  0
LINE
  8
0
 10
0.487869
 20
1.81998
 11
0.512589
 21
1.81607
  0
LINE
  8
0
 10
0.512589
 20
1.81607
 11
0.534882
 21
1.8047
  0
LINE
  8
0
 10
0.534882
 20
1.8047
 11
0.552582
 21
1.787
  0
LINE
  8
0
 10
0.552582
 20
1.787
 11
0.56395
 21
1.76471
  0
LINE
  8
0
 10
0.56395
 20
1.76471
 11
0.567856
 21
1.73999
  0
LINE
  8
0
 10
0.567856
 20
1.73999
 11
0.56395
 21
1.71527
  0
LINE
  8
0
 10
0.56395
 20
1.71527
 11
0.552582
 21
1.69298
  0
LINE
  8
0
 10
0.552582
 20
1.69298
 11
-0.652985
 21
0.487411
  0
LINE
  8
0
 10
-0.652985
 20
0.487411
 11
-0.675278
 21
0.476044
  0
LINE
  8
0
 10
-0.675278
 20
0.476044
 11
-0.699997
 21
0.472137
  0
LINE
  8
0
 10
-0.699997
 20
0.472137
 11
-0.724716
 21
0.476044
  0
LINE
  8
0
 10
-0.487869
 20
0.26001
 11
-0.512589
 21
0.263916
  0
LINE
  8
0
 10
-0.512589
 20
0.263916
 11
-0.534882
 21
0.275284
  0
LINE
  8
0
 10
-0.534882
 20
0.275284
 11
-0.552582
 21
0.292984
  0
LINE
  8
0
 10
-0.552582
 20
0.292984
 11
-0.56395
 21
0.315277
  0
LINE
  8
0
 10
-0.56395
 20
0.315277
 11
-0.567856
 21
0.339996
  0
LINE
  8
0
 10
-0.567856
 20
0.339996
 11
-0.56395
 21
0.364716
  0
LINE
  8
0
 10
-0.56395
 20
0.364716
 11
-0.552582
 21
0.387009
  0
LINE
  8
0
 10
-0.552582
 20
0.387009
 11
0.652985
 21
1.59258
  0
LINE
  8
0
 10
0.652985
 20
1.59258
 11
0.675278
 21
1.60394
  0
LINE
  8
0
 10
0.675278
 20
1.60394
 11
0.699997
 21
1.60785
  0
LINE
  8
0
 10
0.699997
 20
1.60785
 11
0.724716
 21
1.60394
  0
LINE
  8
0
 10
0.724716
 20
1.60394
 11
0.747009
 21
1.59258
  0
LINE
  8
0
 10
0.747009
 20
1.59258
 11
0.764709
 21
1.57487
  0
LINE
  8
0
 10
0.764709
 20
1.57487
 11
0.776077
 21
1.55258
  0
LINE
  8
0
 10
0.776077
 20
1.55258
 11
0.779984
 21
1.52786
  0
LINE
  8
0
 10
0.779984
 20
1.52786
 11
0.779984
 21
0.339996
  0
LINE
  8
0
 10
0.779984
 20
0.339996
 11
0.776077
 21
0.315277
  0
LINE
  8
0
 10
0.776077
 20
0.315277
 11
0.764709
 21
0.292984
  0
LINE
  8
0
 10
0.764709
 20
0.292984
 11
0.747009
 21
0.275284
  0
LINE
  8
0
 10
0.747009
 20
0.275284
 11
0.724716
 21
0.263916
  0
LINE
  8
0
 10
0.724716
 20
0.263916
 11
0.699997
 21
0.26001
  0
LINE
  8
0
 10
0.699997
 20
0.26001
 11
-0.487869
 21
0.26001
  0
ENDSEC
  0
SECTION
  2
OBJECTS
  0
DICTIONARY
  0
ENDSEC
  0
EOF
